<mxfile host="app.diagrams.net" modified="2021-12-21T06:27:19.878Z" agent="5.0 (Windows NT 10.0; Win64; x64) AppleWebKit/537.36 (KHTML, like Gecko) Chrome/96.0.4664.110 Safari/537.36" etag="_yiKnTIgC7n1IyV8uKx3" version="16.0.0" type="github" pages="5">
  <diagram id="kVJKxjOHwOTiGJifk1lg" name="Kubernetes Node Overview">
    <mxGraphModel dx="1422" dy="772" grid="1" gridSize="10" guides="1" tooltips="1" connect="1" arrows="1" fold="1" page="1" pageScale="1" pageWidth="850" pageHeight="1100" math="0" shadow="0">
      <root>
        <mxCell id="0" />
        <mxCell id="1" parent="0" />
        <mxCell id="kEyjtDQY4XuiNmmnNOZo-4" value="" style="shape=image;verticalLabelPosition=bottom;labelBackgroundColor=#ffffff;verticalAlign=top;aspect=fixed;imageAspect=0;image=data:image/png,iVBORw0KGgoAAAANSUhEUgAAAOEAAADhCAMAAAAJbSJIAAAAmVBMVEX////7+/sybOX+/v78/Pz9/f0ya+Aya+L///wxa+UsaeUmZuQfY+RTgukqaORfiukaYeT2+f7k6/vX4fnP2/g4ceYcYd7f5/rv8/2Oqu+yxfTo7vyGpO6XsfDK1/fx9f26y/Wqv/Nqket2mexKfOh+nu1zl+xZhemetvHC0fZGeeexxPNnjuqdtfGnu/KSrfA6cOAIXOMAVd05oiX/AAAgAElEQVR4nM1daWPyKtOOa0JATIxGrbt1qdpa+/7/H/eyhySQEGvv8/jhPh47hLlgGGaDeF2PfbqtHv/SanXYfzutFv+h1yqSdAWJC22JpCNJXkxbweZvAHp1tK9huvebsW3e8qleXjwrDWg7vwHo1dEaALrP9otmsOXYy2uY/g9ElJH8TyqZ3wHsFgD+szX4r0Q0T/vPmO7Iv3hB4AzwFWP7r9agF7RG2+/TcDB8n28XdYNRnsHn2fxHa9CbfQwQgjgMfQwRPt83Qfdvt4nChvjXa3Az91HYJh+/75N/QYj85czyONMM/mI3e57pBjO4WEYYtDOA7Av+OY4quzYBdO46o31iaJqK6HQJscKlf8HoOA0CB4C/sij/ECDvZXqE0M9wAfLJkEL4ntQD/NVu1n2G6Qa00xOCauIATjHwAUYZZB+j/VR77istGUX7Z2sw8JL9D1bzFaLBR7Ihf5mNvwYI05/6ffIP/tkncof8rwA+1UsQjD8pDgEwjM4XyT2BMz5FFDufSZx+jl8A0Eb7VwDXQzZPHGAYDdbdvCWTfEZcvdKpxGi4fuE2kaf9mzW4HkTZ9ofReewFRc0YJJ8IKlkNo8O6ZM29xqJsMDTOAC9nvr0zgESXEHwGWjKPJzLPfSGrIB1cxHP/K4CuvWwHabY7wGifVNAmewQULZHl7atFlFulLwV4uyKpQcheELG9oGq9kvWI1Q4Zous2k9VfmGoarQvT5pYmsYtvkyiUYudjfJpWP7fD90xi86g9M528xc+NrZXNV81g14t3V6If+2oPWE5rOJKPmx7TzG4F6LqLSaPXzODrAPaC+P6ga4oDBBAtR9bBKPuO06MmqwA97rH3DEAj7WtENIi/QqYzGEAA4XJRNFNqDOjFUbPv/BR/xY4Aa9l8CcDZCkMg9zYA/flMbn8NYjKLpQ81WQ1XM7LJvGK7trRsIKKLb8kaAchZ6z4RVesEizmEmaxC8L2oHVsHNn8NcLb0hZogAAFCXxsX0be4S7NvXVZxyAIBfwLQWUQXxx/p3rb7Ppp8dJ6Mi0qSeNVHmUBAGggIah9XxWbt0FQCnObVw2MXe80Alo3tXrD5mGRKmQUCbI9zYrOupX3Iicn1DolHKwACge93M8i7jncTZRgRWeWBgOdX0nNDE3hT4v4B6eMBNNk2jd9U+YPd20TKKhlAiD4TJauNV9JTwk3c233E3T/uvh9ugaR9YgbLxjYZwbcDdVCEhOBIOMlPqIpn5j5YfzJ8XK9Tl6D1WoCMtrc9RFkMC0TUSX5G2T8B8HJOseiXua6XjpSgFydfepeD5kiHiDhXQWOAnoUR+9xfDmkoB5ZousFaKCzvJUomTxt4axq0UsGs9Lp1ZfNZgJ2c5PDwimdQ/RUBqgJJrcO7/kRAk9Urda6eB1gz9523QQTU9gei/VgncQE4uy1XTVW/N9ZXPXOuxDA5GebOAAnJ2xWFavsD0WfiOowKYNJHmPhVDaNqPPCq77z3njPAlpGRMtPdIN61I6BWBIbcfW82g13MVvDPtrS31SqO6buW/AAIrjbuY+vQSyfY3NkOLAASSyopPNxFyQSXiA/PWS3GBgY0TYBosopXC7VD/RqgF39xC4M/HEfHabYQ3HphJMGds+g/CiROqj/wRksElay2sT9fOHVdL6Ib6d7ShwOIjguZEmsGsOUxhOQpE0H7hKcGNU+NsuLgqdUB3MxTzfOGYD5TUaJGIkppt4g/5fAkQLLZzOZtqEVL0EerNlpS08vsoIV3EfieVbtA1Rs9WYdUDsLzswCpaTFbtZEK6PnpcPE7gNNHtr9DtJp5VeJca8mMI57H2D8NkJFsPnCqxApOzPurelwebpHpKVYA08lX18hIA1NtGjE1gZdPhYM0w6j1kan2ECaVXRd6yQOcAT/bZGMzI01s0VnEHgdX3q8AUpJ4d0XCvAJ4YfUdO2LHt/TSGwiAcLLbGHppCrDT4vsh2j3jIRRp49sjFfvG+UmA3pwrGRAdixHoJ9Yg2xAFwu0rki9EVr8jvkunc3PXXhFggelEAES3wMZIU3dpwjhK180Bmsf2wuIoPkBJRdd2S2aP5Yg7RMrc/MEBUw9R0higbR7GPNSHhxVd23oJpkKkPooAnxJRTvIZ0iGPRr8AWKC9cUGLxoF1tm1MB3NmRIbDCoCNPfojG/KfTUOAFWMbcEnDJ6ug2Vq2AsA2VTT1LC2fCVnMIZWpn9cBbHUWiG/XG8vjOuafScspa0nNj9cB9O6YOSevElFGe4R0baOLjU1ryxtiQ7OtH0Z3gN4FMcF/JUBiCjLjbWlhs2tl+sTrmWa2oXliBjsj6ly08TF5YrystJsJs+YHdjbNLTtXutMwL+CXADPaYP7DbRAc1w1Gk8j2nobiQHthB2jsZRRSbxrOLb08MYNe4C1lyCwWjX4tovSxK6b00biUMBZsWlpemKODtm7DWAtwdLkfz1flSE8G+++3cez8uKqugzXTifDDFnio0usgHP1SRL0giMcfQxghjEMVCmkDgGGaRtfllqzz3yVAW8GiTR8M9gUSxaal5ZC6FeDxW4Cby/ERwTCLH6kvrKYBI3T+ckmAVorzgdqC/iRuBDBmfhPZDe3O8UJKhR3g+DiJINBx5QDyXzA83+LfAPSOrFQ1mprYtNW1BeNIOHKWGdyFKD2PKgF2tte0XKFfBMiTSrT8xnaQRnOXLMKzZQlj9GYWNPPQiMhmlBQr6UXL+w/hFYdjO0CWqDZW6JcA0kUE0/dpJcDpcni6mAF6o6jPYyMmgD3z3LP9nri+XTPAGU9fALi2AXx7aCmcCoAyZEbLhJcLu4jeEPRBtDQC9AIW7wdXy25mFm6m9/yBpw9jRntBIkKC1kaTPhkgg26pAkj/AsOvwBLe+OAxmWhr1G/BJ0uHRJtunk1BawQ4ipgOWBlnkAi+iqEW7VZKGy9/QgMuq4iqv4D0Mc4/TnC3jET56cCcXeJrKr2YZtAz17Xx4DS318sAg6mKggO6vnWAXW/9gAZcdAdEqvSNGG5hCSB73Lybn0H67xEJEtAulx3Qrple7KsJKSokA0BqXlFffJb1kvcdl5FkjUHUki/eXMtRqdJfGMHz8v7WloVAeL484wjh8k6CDqOCiHb2EmA7PJvDhjGkZa3ciHYDSPZQon/BoWcGSGjfVS4R6FtKsDmjAtOA7AXne0IbE1tXiCiite3T2578raiQQrjNJbbic1Z19XOxbClnTEvE2rEzQK4r8bHCktmFWPab3iVJkExgASDEQ2KZ8WRVAuUaRCJH2lsfH2moA6Rr+1sDuLmqCmmAvmx75hzT58LEZHCZAHrjlAnMrspUm7LZYvoCfQiAl6IBg9rfU0+tqzWSSgbu5DwFm7czrSjRRwWdOpL7UQYQ920zSFUfG7ebVwbYMgH0PpiXg5JKk554exwP0dM72l1wQ3mAKb7nitLfUqlF8Zf+uPEwKizGYcy7nk4kQBDtN1aAwYiHo94Do9407KCfbL+fbGrqZMYTIXZkX5xfgl2UA4jxV8/TAYqBY2pvnn/ceJDm7Dt4YHBGQFZG4PCtwgzudg/MvRg4AuxuHpQ+HAbVAIkWOImNEWCcfkKNRQL6fSFp5UgvoZRrusS1x/UCb+fnVjAexMnn4iEAgmhYk3x5x+x4hzGXaDAReJgNrupr1YIbr66gUxnqAKG2aKTqD05Y0rIQXv5xs1OU2UHEiDsA2A7lOZN7pya7tENsAV9MbBpMhDeGUGYXKl1wb3TQql0lQIA+N+XkizcM+Qy2WRa49Lhb6iuA1EQg6l+UCE3NG718rkfVNO0afhvZLLdk4RQfzOpmUNiMICwChPds0WSM9AZAACRbbfbcTCCmB6gAtuVgYMp2ra8ds201HLoBZD5zX5SEOHj0i2thzwZrowEdP4C0RcGka3B4vXiP2gWBiIaJYTDKwYQzUzUwLtMaWm4i2gs85h5REUTZRnmAk6nZQ5i1syNDMMOVoyXmYA4g8c+c4jci4EYc2hKtoeWF9cJMareYzB5rAMF1Y3GBFigztqPY8rgVzkk8WjnmXnm5lbIkdFVRbrmCdBhp2MMx6JTkFf1RcZ+PsyRRtq1HlgiIFx/0jREcFqazmQa/fMP8PXAy0ZZanv0+T5+4RtXOeasLXscmgN5Fq8zhSdKyR3+5Yg1gG63rlYxgk8Xo/dAFoMcYwZ/Ogd9dVHCBQjQ3APR2aUYSGWu2u8eCGR4OSseHbcG/JdsvokWZttQyYYzAD5MVawI4QyAPkI490TYWZSAsz63hces+zj2FmrZ3txlkRq/lucWWwY5rpXV9KJr38o5LAGlA4l6kDZaaQiJ+S/FxMXHliwCJ97VxA+hN02Ixkpqz/P8J2wrgWc8NYBIZYzIAsYIznfaUnc9vE5ugIKKXR16Lii8sL+gAsCOM6UE5n18A2KJLliA8uyZfPrEJIDNG3vLnB3WFBOf5LSV+z85H554C8NQtj8ET+qC/KEDqlJimoYa2j5eOAMcok8xCBBhEp5nGCM9Iyi3lPcfIBcO85ZfFeuCxNCtmv/yL7VnpuEhbanlhYTYRJazfbfcqmIE/11mhLfv08USL1vWwFkP1h9oMbo4IFEKnh6xkHo6Ks2IOPIyZSocfBtr83M8hW+Aux8zJZ4oU0zjxxlCPs7EDpcuepI11R54X0XKAlwksOCfRO8998efO813bAg+LNh1BfLIDFA2GdPTANXYCSNwQxQiV60Q55dKAhg9pKk41k8YHE/m4+KSdcBcAj3LP4jrLfOa5ZI8MqH/BOK8EuGlTOoOHauwlzswUyNZc0vdzAOlq/BK7nWbSENkTk7Ftw6J7ib7p6smMXXRzAihGm9iDBdpCS248wrtbAvSmRlqopmDqhzmA5As6M5HfpjkYPeouzWjctTiDX4z7JJK/0DILB4ABK/QgHkMxI1gQblbTQyO2LiZ9cFZG1o+4ZM4bTXC7kHzBcEejNHmLk94rxCYw7/CCn53gfqiSH3Aa1KxB2nVXBF+WxYxg4f9OTB1GBk+ynIntjrBUnnyBM8Uxu+Ji8gWg822JdIBt8LiM9xEoASROm6yVUPsQXFnSmDlB64iE2aEIqTArfbbfH5xM+uCG1Fq5eMo6IRBL2SU/zc0g/QVpd0XJvwB4UUzHV6VOzw4Ae7xctN+P8vn8Xn7uuyPuSM5rQlvi4XtphzENpryJzUGGDY1mSu5LHiDxlrJ19Q3lYIgtsa5WYkc3Oupx5djMt5Srdet0O+VmIrc/qme0sGE8gLkZdAWYq7oPEumLcG1atQY5m0lELT/4VSTJzT0Ps0WLXEsLQGFFCM2UDzoNYXOA4WSaX1dXmTWgNp5DtUuXaclwWAWQPbR88spS7vEFpRU52RTvkxnCpgDxY1Rgei5TrWDSqxVR+suQGd+hJcvNft6wynBhFteWcu2lWxF+BgWAXm+fNgMIJ7Mi02vUFg5HtAjqRJSuDr5yYZJ3/HJDs+bB8bsTwO5EqfN7qZq/23tHjQAO4hLTnUh6VEoxVIaOPB5wS28FEr3lFw92VNX2Z73MlKEpXZY87RGVcAEIU5zd9KIBHJYBEktTNG6LFH1dbGxB92cpgkaAxJ2lqn+ycZhB3dCMzEXWy0JaECD/eL/dl5OSqYY+u6a8z1zuOqIsry741zuwfP7BBFBE/9kmG1YdXsh6CTSj1EI7143tNsa3Hq/tItZazpJBe/O64hYFPUz5MA9ykc13ls8PF8UsdyGaA79dZrAnd2QC8NMyGHISxEqbqS0lHupRNZpAMK4rXl3H4tMOM+hRT4AOHLroJHpL4Sqgiz1ukAFssawkj4fNLbTBRjubTMyeLFnaOmi3QRgzRvRxs0iuV7IOXA6LcyOBTFFG29M54uY/CEf1tzTTlsyxYEbpzkYbZ/H+nySXapsq54iGZi1Mx6o8JZq6hG+7sc8Cbp85o1MbmhZL8IGH9SBXDiC3DmQYtiyi3cDrLNUFpsT5yFc6HVWYlcyhpfSye5XxGzR2C9+yJCzo5/I+GdOdDT9Ekg+DWQF6bRk7o9mFknMczLbvMKv/QuuCjzfOFC0+32ZGpjsDtSFe3K5/W7EexdGxXi7LTVte+CGSmxtAT8XOonKZ/Gi3D7Vb9Igozrp5yYi14CNAeH9beKU7zL2ziu7baksLbAqTZZcjyVrmBqAWoKc81GKhbfIx8FOciyyCR/GQZpzLHAOMwuGteFC1O5QxhPSS58Gm7GNa2svF0ACQqg6a+KoBqFqqU9CpvEKCLr3x3I9guTr4oQ6RiC7zicI284mj89uMrRfRtUDo26osDGyyHR0AM0CPlXuEQ2PL8m0kPBxA1blEGMwurHTdZIvyDIvma29CUCChGwdCnzftor1MXV/cAIpDKz8L9SaGrgYwYWsfrtxmsBtMpH2JmFk6uu3bSF96uS/M89YzUeOoDJCKM0gBB0m67hzk46LKfL624d2kC5/VP2QtbzwDd3Gawa5I4bCU/8Ub3Qe4sPTyX1ioSvfUjthCS18rEJ5vtCCnO1Hq2in4R2wMHoaRcXK+Q6mWJ7Z60MZBybCWbJHQ/Sr8vP4Yll7+y0++DnAU2QCymcRpNLzNYulit6ORQz6f2RgP5sMPTACDB69+69gPXOWvejhi6SGEoD5kQaw27T6Z7iCsoOVVZAh+qhxBFLsBZKcKaaONYlPt+AEPfuKj/c7Qwl0WO5gP/FYCpPt6VmTF4jjWGVSPyxJQqVvwj3w+mIuLxopNVdcWXPgavbm8joGQrN8rqu6Ns4IBsyVorNt3Apj9RaSqXNzWMcuG0SSbshJFSxb3IYM19cwttW2CSFvsfUcNAVIPuE084N1yYih2rwTo9x9vNa+mUWzOHkUzWM0KUxz+NbYB5NZxPEq2q+NwcFBGcZPAL4A4NVXom2hzfwERLcR3eDVNj+dSyKovAOyJ8C74zLfMfMdgetktP68TP0UQhgDUAgQgxBhF5dxEnpaAFi/1qHwcOHzdt+ONtkwsguYtuSyqzLGa+4TX632YW3ZXURQhHBJzuTDSBqb9EMIItifn48c2WR+KCdDcF/y5ej9MQpRiDID+3JIuhmmKftB5uVsv4ip75FI4hK6E+840YzHoL1p2TqhgRZoAsnMxEeoPPpcfl2QhXvewiKoAspMH8XRN5QNH9C4vKy2byhCjNAKD42qdBYnzqmLEtJjIZ+plX++Qxc9nJoDyorUcwFxMkIww+oGH03y3Hs1i0VoshKhimUpPjg5GPEvevk9XIivsalt7I4oTRoOpxWVk+Xx2ej0H0Juwer2refXqESUuiBCdcbbRg8PqNl5QRIF015ULNK4KfrOj1Bktbdydbj9OV4xQaAMovjziPJsSyYnVCyOVzxc/l08p6qt3rtfhk/nCh9UinpxVhg8MrAV2wXtxdPQvzJMxBAgCbzrOksAA+A9Uzp7vjADFdSeRCjyon2kzMqRG4d4qKxLAaPJ+Y4oq1lLz3HUoVxt63ZlfYY+z2KbFzu9dpRtGROX/xm9DMqs5Bc6WmmG7TngO9B7k9gtxFoIauAaAxF2lXh9xxH8Oq7EswyfcZ1nuvRmgnic2TiW623L0Wpb7HlM7ZHE/R/JkMUVKS9wNXl2rx/P5x0AH2BL75MQW0Zqd0xS2T2/a8XkV2uIO3MgkoroTKxdwsYK0mFSSW/AwlIscy70tmN2GIbUYeAzV5FHRsR3oB2A7kpEJr9crp3jU3K+TcuXOReVI8dEMMMmf1sOn3TB/vC0tvLRLdp3VTIOzpx5Hxnq779OZBNHR6LZ2RD7fv4rHSY6Y8vc/zTMoXOUSQK+ThSyQiiPn4qLznI3NTgMNcwWpPGBeNqI+1c5YukFmdnmfwMeHV64X4V2/02IQ0M6ey1qy453+2TKD1sP/c5Xq5UeZirS9MF9ATB2oBOqqH/hqenSkiUrq+KhX6Jpw1417djZPLD8zyQOkIQmCe2KbQVsUfJSqnVkkEfMFdlQJZ3BSpt+1Yji2nC6GGeyc1SuE4Le5azubvBT/kAdIqyhpiic26d+K6xu03Y4fwy0cUj6H2nwJL6+3yZmAxNEp2/kir0ZJ4KIaYJlN/ti9pBU/85Mcej2L2yXGSbYZ0B24QDvK5UgjcUrB+0BqBqlez87Ryy+zvhoDLv0NZlCW4n/JgRM/r/nP714jgF2uuIS7ROsJ8nvbt16Rwc8ZUY56E91dkmkE7TKivaqgolXQzQDKrf0it3beshtDfjQqK2B3A+hNUXlvkwDjh/5ux/ZMcXRBIPMHS/ot2EVKitmwNAHY3XCjAEnJUC2PbJuS9d0OSkb2cszmSbaWtPopGZ5llM8dqkPq1Pya5gEmWeAVQNOlt1W6UHgJeC89D9VSFDjBcaMZ9GgNjuYq3HRaUegobOyDzpF0OLj5lavT6m6uWX4YfTVTMkQx8FIPuYnqt7dwtZcvxHB6l4cmU4BG35WHsNCPL1NPUCtCeNcOU4JrL5vBbmeYOTLhteEMdmMxPINuRitbrnlROj43mkHayzAL0ANa7SoGI/jQ6xTe80UIM6TFbyItw8vKcOTj0LjZDLa8Pa8ZTLXD4lrxLFdg0XfTG2LpRSBK2zxGcrZF6kZ4SbOC3bpCmbMHl8pd9751gPNmM9jyvnj1hj+ZZbSZ/Mci3yVF2P3qv1u27fXBQ9yUnssuoXvRMI8n2RkLP5XPDVZao/Dac80wCIA8qt3v/yQardYyEZFaftiiyd2GJ5xpxjCcclrtnBO7WKbgeWwzg8+PtnyQtUtTaAB55PBWMh0gO+9DZjB6y9FqLfmpdjJ2cTOAvfigjtrzy5XoStNyiaYLVLtZGTwPZvSC1klPKkZb5xQKB8i5kLdEmgCqvQ3uGwHsqtGTgbd7wIZL8kpNz5LvqEsxwAsCcHHWw0FEHzSbQY/pZwLw3LMC9HoDoW1W9TU1+XU1Rlrg10+HG2+QBZLgzBiOzww+uk6DbaifmIanpgDvrILKB+wigXxdmxY2nEltc2kGkPpJeogTtleZn4vu5itwF5rBd54df/SQFTy3iheN1fgEa3a5gw9YYi1f15Zjes21DWiPHAGqXm65uCiAGfeDev/Z709yQUd8iK1ZPrNFuZjw+wxY+W+etuAqf/GBxYeGAFvF21vUF3nBRsE5Jp+NnhLQG9HbW5rNoDfgGWlqWdgAqpAxP1EIdce0TkQ509uofOa5qoqsE+zyB2kyEW02gx4vSKYTM+iUaEtD0xJH4tG9vpfCrFyw4aI933bhLB3bgWnao32r6QzeOECqk0tsloZG3sbm43WDYeRfkkfpvHl/cstdUK7NYMAONBQBgmjetSoZS9fU32Lm/cVEWx6aLb9hJGzXvCKztK46wexcCnEDhA+rtXoJlXxDqReM3vZtXAIYlo/X1QKk2V3pa7kA9Kj1y07VHRoCpCTz8gUEAMA0Ohzv22S2mW02m9l0ffseihvpCrTwOm0M0COWAvNfTq4AadCWXxy3LCdqar3/9cR4XIZlTyNM10oUISQyvsVEDVrGzQHO+aUp1Ng0zIMRIFHj3GZEN2vhqt2si5fljCH/L1MGwFb6Ri+bWHulFxHVdr3lAEFUPFXEvxgBqliAPN7uJKLKDfPm2AKwumgj/G64BbMvibiYMLrY2DTrX3YbVt8PaVCjGcBWrzMBzwAEk7ihR8/8zAcHaL+rx9ZyybUNNB4VqPY8RgOjINaW3fw016Ke98lXPbttxkxrZVpUkdNIQjOAbGWwuJT2stkKgDJ9hU+jhsa2R4MhXF23YyubXXNLz5OR9ehmva/QYtZNWbExAOF2OUmz96SZAYYQD6SFXn9JezH4txUAUdWVbrZZCcbiJkuc5FvWhhgP/FqGyZzeWP4+iWja1wiQ3Vi+Srwle0dlP11aAFpncCoK/tHbEwCpS8m99JDddu4eBb+zBDxexlxwNuPVEKYpL+4STgStCEvRz/X4xuqKFrslv3Q8cZ5B9qUnikHovm2j7VQy/c5zmfCzgYh6MxEB3uq0yfZ7fw0hJNs+JP/iCa3e2mTTc2HX09AEXRMzWATA4FnZggY2q2dFjtG3w2sS87Ee0NarqUX/8WiaJMl0tOkpK1U8d8MDb2RPcxdR70O8kKq9qQDYqgTojbhjCmRQwyFAlaR9UblQdpdktMZwZyIPR4eHDFftDK75DILsTJRFVVQmQC/CVcCjYkubXhfvasteqOHkSMvKudIZXjvAmdBZ0a7mva01TH8IbfPoeC4iKt8wRW+kMji8NoAtL77yYC5/h0P9NuGJwxC0MqjG4Cr+XGR6L7TNyQmgjLyUy8XrDkh+83tq0MpzWoM830kvq81ILKqiBqDK46KP0pl7Q5mmKGIEaXEMak+AiquwAdq4iKi345k7gBedWto6poWbAbSQmWejldfRy2Rwk2CWsBLh0cFK9MbilHe0LhpcZXGuAUj8K34biLqHuCpZKg4w++kTL3yW8VaU1DMtCh5ptMz2ONV1LcAe86FZ3cegDuBaZIPFXWVNAHa6sWy8l7TWGezyBEcbvtcORsVbyfSW4mp7WhdROdufwvPllb9eE4CE9p1n4/rIcvOnog3EfUXhtWUHqBsb9W71RtzgRV8S4FXQ8muM+oCp/EYzSGnXotAxf1WiAaAomPJlVWadRekQNwjGwgeSF2BYaEUhEKtEawyQXjvIRKXmdcFBgvLZI8vjPPcZpPLHw+9kKjdVtKuIB0hnzwCkKRNu8C2rAHZjUR6Qrkpsmnczx7jBkW/INKhhp+0NUh/gnzev0TahSGY+j3mPizd/5txWrq99cVWFg9taC1A8/MCKF6krVjUY98PkM3luBr1esGbu1d0UWZGPC+Zi75p0zI8rj60jQG8h7bG3qtsNCo9r+pK90fdpPq164bO4qou4AtWvh9K6rgOYlfzxV9QROylxZvqptwhWiuhIHHwTFTEugYcagPrQfIhDFzbz38EwdwBYxXSvN+GV/9Uvcc4/1x2g55145pqt8b+awerNe6w/K+8AAAM1SURBVM/r/PHQHWC3SS/dK64JL/8aYHVJ3Zc42jDJXxBdE/xrMoxTcUIgutR5nX8goi1ZReHDOrMu/1xXEaUthSYju63NXvo7EW15C3GHL39NmPvYNgBISFZcTvgtvP9WRHsHfoQfLevZzD/Xwohl7sWBFxrU+LczKN7dLHw49/h0U4CsaNJcTun9cg3W1O2K9xPwmi73DIMVoJ3pRBRaRuZXH/IvL5pBrWvhWgFofG9m1dg26YXRBjfhi4ugxj9Zg6yUs1Tw7yY8dQANHC25tgn5yViHlf77NeidxfJ/d2cze25z82sgujv+M4BLWdrbhM3nAXozca1ndP83WpRqGZZubC+q2TR33VBE2WcstA0aN41sGx9Xd/ohEe9tpdcfNdGigvYJgN3gLmwbX90/VtPLb2Yw9oE6P9N4DapPU+F+F0Y+u2n7b0XUG2aZk6e24KcAEhOKaxtqQv2tiHpz5MuaruZrsATQfe5H8qjI299qUe+GxKGb6XMi2rL14tW1vPA0A1B3Nv6FqcbqjvlIbp9jk/3lOfsy+BLaJvoQtK831WgEVhStrZ4TUUb75NB0eEiBJjXP1FZ89RqkJOuBuDkCDo20Tmw+KdyUJJaveQjR8CYvi/HUf12+VJDEye6MxElwfI07T7PZoIykNCuLBxCVTvRGwcPwVZ8J+dCCW3noJpwsysem3Nn8hY/nLa7qGAgAICQfn/0bhsDn/8W+j+UX+YsgCcUPhBbnaWkpF8gKOOFj5PjKJwub4uemc88CtJuz7frDQsVlk1ddFO7WQueZKUjsPg9PA+S9rCLbW8n4l98CxD/flVHw+nkwMO06g5xkNMTYVJT+ihkEEA1HmRZ9js3fAqTFGvMrvZ4r5CsNkP+C/Bcg1iD5opYpKNGGRdo0OswTq/B4Dbbg59ag3gvR7PPTcCA+54Htcz4XSapod9NmVZ8uAJ1nsEzrySOZPXmrtTocI7+owj1F4kD7tD2S0T7T0qSri4xktxJ1a2lLj7O/beoJNl8E8IXGdsPgX23Xz24TDQejaUDvedoSm88z/Tf+4MvH9h8DfEpEf9f1v+nln4uoxuazTJs049+K6LNj+/+H63Z/Z0bWVQAAAABJRU5ErkJggg==;" vertex="1" parent="1">
          <mxGeometry x="20" y="211" width="65" height="65" as="geometry" />
        </mxCell>
        <mxCell id="kEyjtDQY4XuiNmmnNOZo-6" value="" style="sketch=0;pointerEvents=1;shadow=0;dashed=0;html=1;strokeColor=none;fillColor=#005F4B;labelPosition=center;verticalLabelPosition=bottom;verticalAlign=top;align=center;outlineConnect=0;shape=mxgraph.veeam2.linux_server;" vertex="1" parent="1">
          <mxGeometry x="63" y="290" width="40" height="52" as="geometry" />
        </mxCell>
        <mxCell id="kEyjtDQY4XuiNmmnNOZo-7" value="" style="sketch=0;pointerEvents=1;shadow=0;dashed=0;html=1;strokeColor=none;fillColor=#005F4B;labelPosition=center;verticalLabelPosition=bottom;verticalAlign=top;align=center;outlineConnect=0;shape=mxgraph.veeam2.windows_server;" vertex="1" parent="1">
          <mxGeometry x="150" y="290" width="40" height="52" as="geometry" />
        </mxCell>
        <mxCell id="kEyjtDQY4XuiNmmnNOZo-8" value="" style="sketch=0;pointerEvents=1;shadow=0;dashed=0;html=1;strokeColor=none;fillColor=#005F4B;labelPosition=center;verticalLabelPosition=bottom;verticalAlign=top;align=center;outlineConnect=0;shape=mxgraph.veeam2.linux_server;" vertex="1" parent="1">
          <mxGeometry x="73" y="300" width="40" height="52" as="geometry" />
        </mxCell>
        <mxCell id="kEyjtDQY4XuiNmmnNOZo-9" value="" style="sketch=0;pointerEvents=1;shadow=0;dashed=0;html=1;strokeColor=none;fillColor=#005F4B;labelPosition=center;verticalLabelPosition=bottom;verticalAlign=top;align=center;outlineConnect=0;shape=mxgraph.veeam2.linux_server;" vertex="1" parent="1">
          <mxGeometry x="83" y="310" width="40" height="52" as="geometry" />
        </mxCell>
        <mxCell id="kEyjtDQY4XuiNmmnNOZo-10" value="" style="rounded=1;whiteSpace=wrap;html=1;fillColor=none;" vertex="1" parent="1">
          <mxGeometry x="60" y="276" width="70" height="94" as="geometry" />
        </mxCell>
        <mxCell id="kEyjtDQY4XuiNmmnNOZo-11" value="" style="sketch=0;pointerEvents=1;shadow=0;dashed=0;html=1;strokeColor=none;fillColor=#005F4B;labelPosition=center;verticalLabelPosition=bottom;verticalAlign=top;align=center;outlineConnect=0;shape=mxgraph.veeam2.windows_server;" vertex="1" parent="1">
          <mxGeometry x="160" y="300" width="40" height="52" as="geometry" />
        </mxCell>
        <mxCell id="kEyjtDQY4XuiNmmnNOZo-12" value="" style="sketch=0;pointerEvents=1;shadow=0;dashed=0;html=1;strokeColor=none;fillColor=#005F4B;labelPosition=center;verticalLabelPosition=bottom;verticalAlign=top;align=center;outlineConnect=0;shape=mxgraph.veeam2.windows_server;" vertex="1" parent="1">
          <mxGeometry x="170" y="310" width="40" height="52" as="geometry" />
        </mxCell>
        <mxCell id="kEyjtDQY4XuiNmmnNOZo-13" value="" style="rounded=1;whiteSpace=wrap;html=1;fillColor=none;" vertex="1" parent="1">
          <mxGeometry x="145" y="276" width="70" height="94" as="geometry" />
        </mxCell>
        <mxCell id="kEyjtDQY4XuiNmmnNOZo-14" value="Linux Node Pools" style="text;html=1;strokeColor=none;fillColor=none;align=center;verticalAlign=middle;whiteSpace=wrap;rounded=0;" vertex="1" parent="1">
          <mxGeometry x="65" y="380" width="60" height="30" as="geometry" />
        </mxCell>
        <mxCell id="kEyjtDQY4XuiNmmnNOZo-15" value="Windows Node Pools" style="text;html=1;strokeColor=none;fillColor=none;align=center;verticalAlign=middle;whiteSpace=wrap;rounded=0;" vertex="1" parent="1">
          <mxGeometry x="160" y="380" width="60" height="30" as="geometry" />
        </mxCell>
        <mxCell id="kEyjtDQY4XuiNmmnNOZo-19" style="edgeStyle=orthogonalEdgeStyle;rounded=0;orthogonalLoop=1;jettySize=auto;html=1;exitX=1;exitY=0.25;exitDx=0;exitDy=0;entryX=0;entryY=0.5;entryDx=0;entryDy=0;" edge="1" parent="1" source="kEyjtDQY4XuiNmmnNOZo-16">
          <mxGeometry relative="1" as="geometry">
            <mxPoint x="280" y="280" as="targetPoint" />
          </mxGeometry>
        </mxCell>
        <mxCell id="kEyjtDQY4XuiNmmnNOZo-20" style="edgeStyle=orthogonalEdgeStyle;rounded=0;orthogonalLoop=1;jettySize=auto;html=1;exitX=1;exitY=0.75;exitDx=0;exitDy=0;" edge="1" parent="1" source="kEyjtDQY4XuiNmmnNOZo-16" target="kEyjtDQY4XuiNmmnNOZo-21">
          <mxGeometry relative="1" as="geometry">
            <mxPoint x="280" y="360" as="targetPoint" />
          </mxGeometry>
        </mxCell>
        <mxCell id="kEyjtDQY4XuiNmmnNOZo-16" value="" style="rounded=1;whiteSpace=wrap;html=1;fillColor=none;" vertex="1" parent="1">
          <mxGeometry x="43" y="240" width="197" height="190" as="geometry" />
        </mxCell>
        <mxCell id="kEyjtDQY4XuiNmmnNOZo-21" value="Fixed Instance" style="shadow=0;dashed=0;html=1;strokeColor=none;fillColor=#4495D1;labelPosition=center;verticalLabelPosition=bottom;verticalAlign=top;align=center;outlineConnect=0;shape=mxgraph.veeam.windows_linux_server;" vertex="1" parent="1">
          <mxGeometry x="290" y="346" width="76" height="72" as="geometry" />
        </mxCell>
        <mxCell id="kEyjtDQY4XuiNmmnNOZo-22" value="Spot Instance" style="shadow=0;dashed=0;html=1;strokeColor=none;fillColor=#4495D1;labelPosition=center;verticalLabelPosition=bottom;verticalAlign=top;align=center;outlineConnect=0;shape=mxgraph.veeam.windows_linux_server;" vertex="1" parent="1">
          <mxGeometry x="290" y="250" width="76" height="72" as="geometry" />
        </mxCell>
      </root>
    </mxGraphModel>
  </diagram>
  <diagram id="XN8---h1Y4OIaUDpVWU2" name="Capacity Management">
    <mxGraphModel dx="981" dy="532" grid="1" gridSize="10" guides="1" tooltips="1" connect="1" arrows="1" fold="1" page="1" pageScale="1" pageWidth="850" pageHeight="1100" math="0" shadow="0">
      <root>
        <mxCell id="YEG_hQz7j7ZMjrxj2CpJ-0" />
        <mxCell id="YEG_hQz7j7ZMjrxj2CpJ-1" parent="YEG_hQz7j7ZMjrxj2CpJ-0" />
        <mxCell id="YEG_hQz7j7ZMjrxj2CpJ-2" value="" style="shape=image;verticalLabelPosition=bottom;labelBackgroundColor=#ffffff;verticalAlign=top;aspect=fixed;imageAspect=0;image=data:image/png,iVBORw0KGgoAAAANSUhEUgAAAOEAAADhCAMAAAAJbSJIAAAAmVBMVEX////7+/sybOX+/v78/Pz9/f0ya+Aya+L///wxa+UsaeUmZuQfY+RTgukqaORfiukaYeT2+f7k6/vX4fnP2/g4ceYcYd7f5/rv8/2Oqu+yxfTo7vyGpO6XsfDK1/fx9f26y/Wqv/Nqket2mexKfOh+nu1zl+xZhemetvHC0fZGeeexxPNnjuqdtfGnu/KSrfA6cOAIXOMAVd05oiX/AAAgAElEQVR4nM1daWPyKtOOa0JATIxGrbt1qdpa+/7/H/eyhySQEGvv8/jhPh47hLlgGGaDeF2PfbqtHv/SanXYfzutFv+h1yqSdAWJC22JpCNJXkxbweZvAHp1tK9huvebsW3e8qleXjwrDWg7vwHo1dEaALrP9otmsOXYy2uY/g9ElJH8TyqZ3wHsFgD+szX4r0Q0T/vPmO7Iv3hB4AzwFWP7r9agF7RG2+/TcDB8n28XdYNRnsHn2fxHa9CbfQwQgjgMfQwRPt83Qfdvt4nChvjXa3Az91HYJh+/75N/QYj85czyONMM/mI3e57pBjO4WEYYtDOA7Av+OY4quzYBdO46o31iaJqK6HQJscKlf8HoOA0CB4C/sij/ECDvZXqE0M9wAfLJkEL4ntQD/NVu1n2G6Qa00xOCauIATjHwAUYZZB+j/VR77istGUX7Z2sw8JL9D1bzFaLBR7Ihf5mNvwYI05/6ffIP/tkncof8rwA+1UsQjD8pDgEwjM4XyT2BMz5FFDufSZx+jl8A0Eb7VwDXQzZPHGAYDdbdvCWTfEZcvdKpxGi4fuE2kaf9mzW4HkTZ9ofReewFRc0YJJ8IKlkNo8O6ZM29xqJsMDTOAC9nvr0zgESXEHwGWjKPJzLPfSGrIB1cxHP/K4CuvWwHabY7wGifVNAmewQULZHl7atFlFulLwV4uyKpQcheELG9oGq9kvWI1Q4Zous2k9VfmGoarQvT5pYmsYtvkyiUYudjfJpWP7fD90xi86g9M528xc+NrZXNV81g14t3V6If+2oPWE5rOJKPmx7TzG4F6LqLSaPXzODrAPaC+P6ga4oDBBAtR9bBKPuO06MmqwA97rH3DEAj7WtENIi/QqYzGEAA4XJRNFNqDOjFUbPv/BR/xY4Aa9l8CcDZCkMg9zYA/flMbn8NYjKLpQ81WQ1XM7LJvGK7trRsIKKLb8kaAchZ6z4RVesEizmEmaxC8L2oHVsHNn8NcLb0hZogAAFCXxsX0be4S7NvXVZxyAIBfwLQWUQXxx/p3rb7Ppp8dJ6Mi0qSeNVHmUBAGggIah9XxWbt0FQCnObVw2MXe80Alo3tXrD5mGRKmQUCbI9zYrOupX3Iicn1DolHKwACge93M8i7jncTZRgRWeWBgOdX0nNDE3hT4v4B6eMBNNk2jd9U+YPd20TKKhlAiD4TJauNV9JTwk3c233E3T/uvh9ugaR9YgbLxjYZwbcDdVCEhOBIOMlPqIpn5j5YfzJ8XK9Tl6D1WoCMtrc9RFkMC0TUSX5G2T8B8HJOseiXua6XjpSgFydfepeD5kiHiDhXQWOAnoUR+9xfDmkoB5ZousFaKCzvJUomTxt4axq0UsGs9Lp1ZfNZgJ2c5PDwimdQ/RUBqgJJrcO7/kRAk9Urda6eB1gz9523QQTU9gei/VgncQE4uy1XTVW/N9ZXPXOuxDA5GebOAAnJ2xWFavsD0WfiOowKYNJHmPhVDaNqPPCq77z3njPAlpGRMtPdIN61I6BWBIbcfW82g13MVvDPtrS31SqO6buW/AAIrjbuY+vQSyfY3NkOLAASSyopPNxFyQSXiA/PWS3GBgY0TYBosopXC7VD/RqgF39xC4M/HEfHabYQ3HphJMGds+g/CiROqj/wRksElay2sT9fOHVdL6Ib6d7ShwOIjguZEmsGsOUxhOQpE0H7hKcGNU+NsuLgqdUB3MxTzfOGYD5TUaJGIkppt4g/5fAkQLLZzOZtqEVL0EerNlpS08vsoIV3EfieVbtA1Rs9WYdUDsLzswCpaTFbtZEK6PnpcPE7gNNHtr9DtJp5VeJca8mMI57H2D8NkJFsPnCqxApOzPurelwebpHpKVYA08lX18hIA1NtGjE1gZdPhYM0w6j1kan2ECaVXRd6yQOcAT/bZGMzI01s0VnEHgdX3q8AUpJ4d0XCvAJ4YfUdO2LHt/TSGwiAcLLbGHppCrDT4vsh2j3jIRRp49sjFfvG+UmA3pwrGRAdixHoJ9Yg2xAFwu0rki9EVr8jvkunc3PXXhFggelEAES3wMZIU3dpwjhK180Bmsf2wuIoPkBJRdd2S2aP5Yg7RMrc/MEBUw9R0higbR7GPNSHhxVd23oJpkKkPooAnxJRTvIZ0iGPRr8AWKC9cUGLxoF1tm1MB3NmRIbDCoCNPfojG/KfTUOAFWMbcEnDJ6ug2Vq2AsA2VTT1LC2fCVnMIZWpn9cBbHUWiG/XG8vjOuafScspa0nNj9cB9O6YOSevElFGe4R0baOLjU1ryxtiQ7OtH0Z3gN4FMcF/JUBiCjLjbWlhs2tl+sTrmWa2oXliBjsj6ly08TF5YrystJsJs+YHdjbNLTtXutMwL+CXADPaYP7DbRAc1w1Gk8j2nobiQHthB2jsZRRSbxrOLb08MYNe4C1lyCwWjX4tovSxK6b00biUMBZsWlpemKODtm7DWAtwdLkfz1flSE8G+++3cez8uKqugzXTifDDFnio0usgHP1SRL0giMcfQxghjEMVCmkDgGGaRtfllqzz3yVAW8GiTR8M9gUSxaal5ZC6FeDxW4Cby/ERwTCLH6kvrKYBI3T+ckmAVorzgdqC/iRuBDBmfhPZDe3O8UJKhR3g+DiJINBx5QDyXzA83+LfAPSOrFQ1mprYtNW1BeNIOHKWGdyFKD2PKgF2tte0XKFfBMiTSrT8xnaQRnOXLMKzZQlj9GYWNPPQiMhmlBQr6UXL+w/hFYdjO0CWqDZW6JcA0kUE0/dpJcDpcni6mAF6o6jPYyMmgD3z3LP9nri+XTPAGU9fALi2AXx7aCmcCoAyZEbLhJcLu4jeEPRBtDQC9AIW7wdXy25mFm6m9/yBpw9jRntBIkKC1kaTPhkgg26pAkj/AsOvwBLe+OAxmWhr1G/BJ0uHRJtunk1BawQ4ipgOWBlnkAi+iqEW7VZKGy9/QgMuq4iqv4D0Mc4/TnC3jET56cCcXeJrKr2YZtAz17Xx4DS318sAg6mKggO6vnWAXW/9gAZcdAdEqvSNGG5hCSB73Lybn0H67xEJEtAulx3Qrple7KsJKSokA0BqXlFffJb1kvcdl5FkjUHUki/eXMtRqdJfGMHz8v7WloVAeL484wjh8k6CDqOCiHb2EmA7PJvDhjGkZa3ciHYDSPZQon/BoWcGSGjfVS4R6FtKsDmjAtOA7AXne0IbE1tXiCiite3T2578raiQQrjNJbbic1Z19XOxbClnTEvE2rEzQK4r8bHCktmFWPab3iVJkExgASDEQ2KZ8WRVAuUaRCJH2lsfH2moA6Rr+1sDuLmqCmmAvmx75hzT58LEZHCZAHrjlAnMrspUm7LZYvoCfQiAl6IBg9rfU0+tqzWSSgbu5DwFm7czrSjRRwWdOpL7UQYQ920zSFUfG7ebVwbYMgH0PpiXg5JKk554exwP0dM72l1wQ3mAKb7nitLfUqlF8Zf+uPEwKizGYcy7nk4kQBDtN1aAwYiHo94Do9407KCfbL+fbGrqZMYTIXZkX5xfgl2UA4jxV8/TAYqBY2pvnn/ceJDm7Dt4YHBGQFZG4PCtwgzudg/MvRg4AuxuHpQ+HAbVAIkWOImNEWCcfkKNRQL6fSFp5UgvoZRrusS1x/UCb+fnVjAexMnn4iEAgmhYk3x5x+x4hzGXaDAReJgNrupr1YIbr66gUxnqAKG2aKTqD05Y0rIQXv5xs1OU2UHEiDsA2A7lOZN7pya7tENsAV9MbBpMhDeGUGYXKl1wb3TQql0lQIA+N+XkizcM+Qy2WRa49Lhb6iuA1EQg6l+UCE3NG718rkfVNO0afhvZLLdk4RQfzOpmUNiMICwChPds0WSM9AZAACRbbfbcTCCmB6gAtuVgYMp2ra8ds201HLoBZD5zX5SEOHj0i2thzwZrowEdP4C0RcGka3B4vXiP2gWBiIaJYTDKwYQzUzUwLtMaWm4i2gs85h5REUTZRnmAk6nZQ5i1syNDMMOVoyXmYA4g8c+c4jci4EYc2hKtoeWF9cJMareYzB5rAMF1Y3GBFigztqPY8rgVzkk8WjnmXnm5lbIkdFVRbrmCdBhp2MMx6JTkFf1RcZ+PsyRRtq1HlgiIFx/0jREcFqazmQa/fMP8PXAy0ZZanv0+T5+4RtXOeasLXscmgN5Fq8zhSdKyR3+5Yg1gG63rlYxgk8Xo/dAFoMcYwZ/Ogd9dVHCBQjQ3APR2aUYSGWu2u8eCGR4OSseHbcG/JdsvokWZttQyYYzAD5MVawI4QyAPkI490TYWZSAsz63hces+zj2FmrZ3txlkRq/lucWWwY5rpXV9KJr38o5LAGlA4l6kDZaaQiJ+S/FxMXHliwCJ97VxA+hN02Ixkpqz/P8J2wrgWc8NYBIZYzIAsYIznfaUnc9vE5ugIKKXR16Lii8sL+gAsCOM6UE5n18A2KJLliA8uyZfPrEJIDNG3vLnB3WFBOf5LSV+z85H554C8NQtj8ET+qC/KEDqlJimoYa2j5eOAMcok8xCBBhEp5nGCM9Iyi3lPcfIBcO85ZfFeuCxNCtmv/yL7VnpuEhbanlhYTYRJazfbfcqmIE/11mhLfv08USL1vWwFkP1h9oMbo4IFEKnh6xkHo6Ks2IOPIyZSocfBtr83M8hW+Aux8zJZ4oU0zjxxlCPs7EDpcuepI11R54X0XKAlwksOCfRO8998efO813bAg+LNh1BfLIDFA2GdPTANXYCSNwQxQiV60Q55dKAhg9pKk41k8YHE/m4+KSdcBcAj3LP4jrLfOa5ZI8MqH/BOK8EuGlTOoOHauwlzswUyNZc0vdzAOlq/BK7nWbSENkTk7Ftw6J7ib7p6smMXXRzAihGm9iDBdpCS248wrtbAvSmRlqopmDqhzmA5As6M5HfpjkYPeouzWjctTiDX4z7JJK/0DILB4ABK/QgHkMxI1gQblbTQyO2LiZ9cFZG1o+4ZM4bTXC7kHzBcEejNHmLk94rxCYw7/CCn53gfqiSH3Aa1KxB2nVXBF+WxYxg4f9OTB1GBk+ynIntjrBUnnyBM8Uxu+Ji8gWg822JdIBt8LiM9xEoASROm6yVUPsQXFnSmDlB64iE2aEIqTArfbbfH5xM+uCG1Fq5eMo6IRBL2SU/zc0g/QVpd0XJvwB4UUzHV6VOzw4Ae7xctN+P8vn8Xn7uuyPuSM5rQlvi4XtphzENpryJzUGGDY1mSu5LHiDxlrJ19Q3lYIgtsa5WYkc3Oupx5djMt5Srdet0O+VmIrc/qme0sGE8gLkZdAWYq7oPEumLcG1atQY5m0lELT/4VSTJzT0Ps0WLXEsLQGFFCM2UDzoNYXOA4WSaX1dXmTWgNp5DtUuXaclwWAWQPbR88spS7vEFpRU52RTvkxnCpgDxY1Rgei5TrWDSqxVR+suQGd+hJcvNft6wynBhFteWcu2lWxF+BgWAXm+fNgMIJ7Mi02vUFg5HtAjqRJSuDr5yYZJ3/HJDs+bB8bsTwO5EqfN7qZq/23tHjQAO4hLTnUh6VEoxVIaOPB5wS28FEr3lFw92VNX2Z73MlKEpXZY87RGVcAEIU5zd9KIBHJYBEktTNG6LFH1dbGxB92cpgkaAxJ2lqn+ycZhB3dCMzEXWy0JaECD/eL/dl5OSqYY+u6a8z1zuOqIsry741zuwfP7BBFBE/9kmG1YdXsh6CTSj1EI7143tNsa3Hq/tItZazpJBe/O64hYFPUz5MA9ykc13ls8PF8UsdyGaA79dZrAnd2QC8NMyGHISxEqbqS0lHupRNZpAMK4rXl3H4tMOM+hRT4AOHLroJHpL4Sqgiz1ukAFssawkj4fNLbTBRjubTMyeLFnaOmi3QRgzRvRxs0iuV7IOXA6LcyOBTFFG29M54uY/CEf1tzTTlsyxYEbpzkYbZ/H+nySXapsq54iGZi1Mx6o8JZq6hG+7sc8Cbp85o1MbmhZL8IGH9SBXDiC3DmQYtiyi3cDrLNUFpsT5yFc6HVWYlcyhpfSye5XxGzR2C9+yJCzo5/I+GdOdDT9Ekg+DWQF6bRk7o9mFknMczLbvMKv/QuuCjzfOFC0+32ZGpjsDtSFe3K5/W7EexdGxXi7LTVte+CGSmxtAT8XOonKZ/Gi3D7Vb9Igozrp5yYi14CNAeH9beKU7zL2ziu7baksLbAqTZZcjyVrmBqAWoKc81GKhbfIx8FOciyyCR/GQZpzLHAOMwuGteFC1O5QxhPSS58Gm7GNa2svF0ACQqg6a+KoBqFqqU9CpvEKCLr3x3I9guTr4oQ6RiC7zicI284mj89uMrRfRtUDo26osDGyyHR0AM0CPlXuEQ2PL8m0kPBxA1blEGMwurHTdZIvyDIvma29CUCChGwdCnzftor1MXV/cAIpDKz8L9SaGrgYwYWsfrtxmsBtMpH2JmFk6uu3bSF96uS/M89YzUeOoDJCKM0gBB0m67hzk46LKfL624d2kC5/VP2QtbzwDd3Gawa5I4bCU/8Ub3Qe4sPTyX1ioSvfUjthCS18rEJ5vtCCnO1Hq2in4R2wMHoaRcXK+Q6mWJ7Z60MZBybCWbJHQ/Sr8vP4Yll7+y0++DnAU2QCymcRpNLzNYulit6ORQz6f2RgP5sMPTACDB69+69gPXOWvejhi6SGEoD5kQaw27T6Z7iCsoOVVZAh+qhxBFLsBZKcKaaONYlPt+AEPfuKj/c7Qwl0WO5gP/FYCpPt6VmTF4jjWGVSPyxJQqVvwj3w+mIuLxopNVdcWXPgavbm8joGQrN8rqu6Ns4IBsyVorNt3Apj9RaSqXNzWMcuG0SSbshJFSxb3IYM19cwttW2CSFvsfUcNAVIPuE084N1yYih2rwTo9x9vNa+mUWzOHkUzWM0KUxz+NbYB5NZxPEq2q+NwcFBGcZPAL4A4NVXom2hzfwERLcR3eDVNj+dSyKovAOyJ8C74zLfMfMdgetktP68TP0UQhgDUAgQgxBhF5dxEnpaAFi/1qHwcOHzdt+ONtkwsguYtuSyqzLGa+4TX632YW3ZXURQhHBJzuTDSBqb9EMIItifn48c2WR+KCdDcF/y5ej9MQpRiDID+3JIuhmmKftB5uVsv4ip75FI4hK6E+840YzHoL1p2TqhgRZoAsnMxEeoPPpcfl2QhXvewiKoAspMH8XRN5QNH9C4vKy2byhCjNAKD42qdBYnzqmLEtJjIZ+plX++Qxc9nJoDyorUcwFxMkIww+oGH03y3Hs1i0VoshKhimUpPjg5GPEvevk9XIivsalt7I4oTRoOpxWVk+Xx2ej0H0Juwer2refXqESUuiBCdcbbRg8PqNl5QRIF015ULNK4KfrOj1Bktbdydbj9OV4xQaAMovjziPJsSyYnVCyOVzxc/l08p6qt3rtfhk/nCh9UinpxVhg8MrAV2wXtxdPQvzJMxBAgCbzrOksAA+A9Uzp7vjADFdSeRCjyon2kzMqRG4d4qKxLAaPJ+Y4oq1lLz3HUoVxt63ZlfYY+z2KbFzu9dpRtGROX/xm9DMqs5Bc6WmmG7TngO9B7k9gtxFoIauAaAxF2lXh9xxH8Oq7EswyfcZ1nuvRmgnic2TiW623L0Wpb7HlM7ZHE/R/JkMUVKS9wNXl2rx/P5x0AH2BL75MQW0Zqd0xS2T2/a8XkV2uIO3MgkoroTKxdwsYK0mFSSW/AwlIscy70tmN2GIbUYeAzV5FHRsR3oB2A7kpEJr9crp3jU3K+TcuXOReVI8dEMMMmf1sOn3TB/vC0tvLRLdp3VTIOzpx5Hxnq779OZBNHR6LZ2RD7fv4rHSY6Y8vc/zTMoXOUSQK+ThSyQiiPn4qLznI3NTgMNcwWpPGBeNqI+1c5YukFmdnmfwMeHV64X4V2/02IQ0M6ey1qy453+2TKD1sP/c5Xq5UeZirS9MF9ATB2oBOqqH/hqenSkiUrq+KhX6Jpw1417djZPLD8zyQOkIQmCe2KbQVsUfJSqnVkkEfMFdlQJZ3BSpt+1Yji2nC6GGeyc1SuE4Le5azubvBT/kAdIqyhpiic26d+K6xu03Y4fwy0cUj6H2nwJL6+3yZmAxNEp2/kir0ZJ4KIaYJlN/ti9pBU/85Mcej2L2yXGSbYZ0B24QDvK5UgjcUrB+0BqBqlez87Ryy+zvhoDLv0NZlCW4n/JgRM/r/nP714jgF2uuIS7ROsJ8nvbt16Rwc8ZUY56E91dkmkE7TKivaqgolXQzQDKrf0it3beshtDfjQqK2B3A+hNUXlvkwDjh/5ux/ZMcXRBIPMHS/ot2EVKitmwNAHY3XCjAEnJUC2PbJuS9d0OSkb2cszmSbaWtPopGZ5llM8dqkPq1Pya5gEmWeAVQNOlt1W6UHgJeC89D9VSFDjBcaMZ9GgNjuYq3HRaUegobOyDzpF0OLj5lavT6m6uWX4YfTVTMkQx8FIPuYnqt7dwtZcvxHB6l4cmU4BG35WHsNCPL1NPUCtCeNcOU4JrL5vBbmeYOTLhteEMdmMxPINuRitbrnlROj43mkHayzAL0ANa7SoGI/jQ6xTe80UIM6TFbyItw8vKcOTj0LjZDLa8Pa8ZTLXD4lrxLFdg0XfTG2LpRSBK2zxGcrZF6kZ4SbOC3bpCmbMHl8pd9751gPNmM9jyvnj1hj+ZZbSZ/Mci3yVF2P3qv1u27fXBQ9yUnssuoXvRMI8n2RkLP5XPDVZao/Dac80wCIA8qt3v/yQardYyEZFaftiiyd2GJ5xpxjCcclrtnBO7WKbgeWwzg8+PtnyQtUtTaAB55PBWMh0gO+9DZjB6y9FqLfmpdjJ2cTOAvfigjtrzy5XoStNyiaYLVLtZGTwPZvSC1klPKkZb5xQKB8i5kLdEmgCqvQ3uGwHsqtGTgbd7wIZL8kpNz5LvqEsxwAsCcHHWw0FEHzSbQY/pZwLw3LMC9HoDoW1W9TU1+XU1Rlrg10+HG2+QBZLgzBiOzww+uk6DbaifmIanpgDvrILKB+wigXxdmxY2nEltc2kGkPpJeogTtleZn4vu5itwF5rBd54df/SQFTy3iheN1fgEa3a5gw9YYi1f15Zjes21DWiPHAGqXm65uCiAGfeDev/Z709yQUd8iK1ZPrNFuZjw+wxY+W+etuAqf/GBxYeGAFvF21vUF3nBRsE5Jp+NnhLQG9HbW5rNoDfgGWlqWdgAqpAxP1EIdce0TkQ509uofOa5qoqsE+zyB2kyEW02gx4vSKYTM+iUaEtD0xJH4tG9vpfCrFyw4aI933bhLB3bgWnao32r6QzeOECqk0tsloZG3sbm43WDYeRfkkfpvHl/cstdUK7NYMAONBQBgmjetSoZS9fU32Lm/cVEWx6aLb9hJGzXvCKztK46wexcCnEDhA+rtXoJlXxDqReM3vZtXAIYlo/X1QKk2V3pa7kA9Kj1y07VHRoCpCTz8gUEAMA0Ohzv22S2mW02m9l0ffseihvpCrTwOm0M0COWAvNfTq4AadCWXxy3LCdqar3/9cR4XIZlTyNM10oUISQyvsVEDVrGzQHO+aUp1Ng0zIMRIFHj3GZEN2vhqt2si5fljCH/L1MGwFb6Ri+bWHulFxHVdr3lAEFUPFXEvxgBqliAPN7uJKLKDfPm2AKwumgj/G64BbMvibiYMLrY2DTrX3YbVt8PaVCjGcBWrzMBzwAEk7ihR8/8zAcHaL+rx9ZyybUNNB4VqPY8RgOjINaW3fw016Ke98lXPbttxkxrZVpUkdNIQjOAbGWwuJT2stkKgDJ9hU+jhsa2R4MhXF23YyubXXNLz5OR9ehmva/QYtZNWbExAOF2OUmz96SZAYYQD6SFXn9JezH4txUAUdWVbrZZCcbiJkuc5FvWhhgP/FqGyZzeWP4+iWja1wiQ3Vi+Srwle0dlP11aAFpncCoK/tHbEwCpS8m99JDddu4eBb+zBDxexlxwNuPVEKYpL+4STgStCEvRz/X4xuqKFrslv3Q8cZ5B9qUnikHovm2j7VQy/c5zmfCzgYh6MxEB3uq0yfZ7fw0hJNs+JP/iCa3e2mTTc2HX09AEXRMzWATA4FnZggY2q2dFjtG3w2sS87Ee0NarqUX/8WiaJMl0tOkpK1U8d8MDb2RPcxdR70O8kKq9qQDYqgTojbhjCmRQwyFAlaR9UblQdpdktMZwZyIPR4eHDFftDK75DILsTJRFVVQmQC/CVcCjYkubXhfvasteqOHkSMvKudIZXjvAmdBZ0a7mva01TH8IbfPoeC4iKt8wRW+kMji8NoAtL77yYC5/h0P9NuGJwxC0MqjG4Cr+XGR6L7TNyQmgjLyUy8XrDkh+83tq0MpzWoM830kvq81ILKqiBqDK46KP0pl7Q5mmKGIEaXEMak+AiquwAdq4iKi345k7gBedWto6poWbAbSQmWejldfRy2Rwk2CWsBLh0cFK9MbilHe0LhpcZXGuAUj8K34biLqHuCpZKg4w++kTL3yW8VaU1DMtCh5ptMz2ONV1LcAe86FZ3cegDuBaZIPFXWVNAHa6sWy8l7TWGezyBEcbvtcORsVbyfSW4mp7WhdROdufwvPllb9eE4CE9p1n4/rIcvOnog3EfUXhtWUHqBsb9W71RtzgRV8S4FXQ8muM+oCp/EYzSGnXotAxf1WiAaAomPJlVWadRekQNwjGwgeSF2BYaEUhEKtEawyQXjvIRKXmdcFBgvLZI8vjPPcZpPLHw+9kKjdVtKuIB0hnzwCkKRNu8C2rAHZjUR6Qrkpsmnczx7jBkW/INKhhp+0NUh/gnzev0TahSGY+j3mPizd/5txWrq99cVWFg9taC1A8/MCKF6krVjUY98PkM3luBr1esGbu1d0UWZGPC+Zi75p0zI8rj60jQG8h7bG3qtsNCo9r+pK90fdpPq164bO4qou4AtWvh9K6rgOYlfzxV9QROylxZvqptwhWiuhIHHwTFTEugYcagPrQfIhDFzbz38EwdwBYxXSvN+GV/9Uvcc4/1x2g55145pqt8b+awerNe6w/K+8AAAM1SURBVM/r/PHQHWC3SS/dK64JL/8aYHVJ3Zc42jDJXxBdE/xrMoxTcUIgutR5nX8goi1ZReHDOrMu/1xXEaUthSYju63NXvo7EW15C3GHL39NmPvYNgBISFZcTvgtvP9WRHsHfoQfLevZzD/Xwohl7sWBFxrU+LczKN7dLHw49/h0U4CsaNJcTun9cg3W1O2K9xPwmi73DIMVoJ3pRBRaRuZXH/IvL5pBrWvhWgFofG9m1dg26YXRBjfhi4ugxj9Zg6yUs1Tw7yY8dQANHC25tgn5yViHlf77NeidxfJ/d2cze25z82sgujv+M4BLWdrbhM3nAXozca1ndP83WpRqGZZubC+q2TR33VBE2WcstA0aN41sGx9Xd/ohEe9tpdcfNdGigvYJgN3gLmwbX90/VtPLb2Yw9oE6P9N4DapPU+F+F0Y+u2n7b0XUG2aZk6e24KcAEhOKaxtqQv2tiHpz5MuaruZrsATQfe5H8qjI299qUe+GxKGb6XMi2rL14tW1vPA0A1B3Nv6FqcbqjvlIbp9jk/3lOfsy+BLaJvoQtK831WgEVhStrZ4TUUb75NB0eEiBJjXP1FZ89RqkJOuBuDkCDo20Tmw+KdyUJJaveQjR8CYvi/HUf12+VJDEye6MxElwfI07T7PZoIykNCuLBxCVTvRGwcPwVZ8J+dCCW3noJpwsysem3Nn8hY/nLa7qGAgAICQfn/0bhsDn/8W+j+UX+YsgCcUPhBbnaWkpF8gKOOFj5PjKJwub4uemc88CtJuz7frDQsVlk1ddFO7WQueZKUjsPg9PA+S9rCLbW8n4l98CxD/flVHw+nkwMO06g5xkNMTYVJT+ihkEEA1HmRZ9js3fAqTFGvMrvZ4r5CsNkP+C/Bcg1iD5opYpKNGGRdo0OswTq/B4Dbbg59ag3gvR7PPTcCA+54Htcz4XSapod9NmVZ8uAJ1nsEzrySOZPXmrtTocI7+owj1F4kD7tD2S0T7T0qSri4xktxJ1a2lLj7O/beoJNl8E8IXGdsPgX23Xz24TDQejaUDvedoSm88z/Tf+4MvH9h8DfEpEf9f1v+nln4uoxuazTJs049+K6LNj+/+H63Z/Z0bWVQAAAABJRU5ErkJggg==;" vertex="1" parent="YEG_hQz7j7ZMjrxj2CpJ-1">
          <mxGeometry x="20" y="211" width="65" height="65" as="geometry" />
        </mxCell>
        <mxCell id="YEG_hQz7j7ZMjrxj2CpJ-3" value="" style="sketch=0;pointerEvents=1;shadow=0;dashed=0;html=1;strokeColor=none;fillColor=#005F4B;labelPosition=center;verticalLabelPosition=bottom;verticalAlign=top;align=center;outlineConnect=0;shape=mxgraph.veeam2.linux_server;" vertex="1" parent="YEG_hQz7j7ZMjrxj2CpJ-1">
          <mxGeometry x="63" y="290" width="40" height="52" as="geometry" />
        </mxCell>
        <mxCell id="YEG_hQz7j7ZMjrxj2CpJ-4" value="" style="sketch=0;pointerEvents=1;shadow=0;dashed=0;html=1;strokeColor=none;fillColor=#005F4B;labelPosition=center;verticalLabelPosition=bottom;verticalAlign=top;align=center;outlineConnect=0;shape=mxgraph.veeam2.windows_server;" vertex="1" parent="YEG_hQz7j7ZMjrxj2CpJ-1">
          <mxGeometry x="150" y="290" width="40" height="52" as="geometry" />
        </mxCell>
        <mxCell id="YEG_hQz7j7ZMjrxj2CpJ-5" value="" style="sketch=0;pointerEvents=1;shadow=0;dashed=0;html=1;strokeColor=none;fillColor=#005F4B;labelPosition=center;verticalLabelPosition=bottom;verticalAlign=top;align=center;outlineConnect=0;shape=mxgraph.veeam2.linux_server;" vertex="1" parent="YEG_hQz7j7ZMjrxj2CpJ-1">
          <mxGeometry x="73" y="300" width="40" height="52" as="geometry" />
        </mxCell>
        <mxCell id="YEG_hQz7j7ZMjrxj2CpJ-6" value="" style="sketch=0;pointerEvents=1;shadow=0;dashed=0;html=1;strokeColor=none;fillColor=#005F4B;labelPosition=center;verticalLabelPosition=bottom;verticalAlign=top;align=center;outlineConnect=0;shape=mxgraph.veeam2.linux_server;" vertex="1" parent="YEG_hQz7j7ZMjrxj2CpJ-1">
          <mxGeometry x="83" y="310" width="40" height="52" as="geometry" />
        </mxCell>
        <mxCell id="YEG_hQz7j7ZMjrxj2CpJ-7" value="" style="rounded=1;whiteSpace=wrap;html=1;fillColor=none;" vertex="1" parent="YEG_hQz7j7ZMjrxj2CpJ-1">
          <mxGeometry x="60" y="276" width="70" height="94" as="geometry" />
        </mxCell>
        <mxCell id="YEG_hQz7j7ZMjrxj2CpJ-8" value="" style="sketch=0;pointerEvents=1;shadow=0;dashed=0;html=1;strokeColor=none;fillColor=#005F4B;labelPosition=center;verticalLabelPosition=bottom;verticalAlign=top;align=center;outlineConnect=0;shape=mxgraph.veeam2.windows_server;" vertex="1" parent="YEG_hQz7j7ZMjrxj2CpJ-1">
          <mxGeometry x="160" y="300" width="40" height="52" as="geometry" />
        </mxCell>
        <mxCell id="YEG_hQz7j7ZMjrxj2CpJ-9" value="" style="sketch=0;pointerEvents=1;shadow=0;dashed=0;html=1;strokeColor=none;fillColor=#005F4B;labelPosition=center;verticalLabelPosition=bottom;verticalAlign=top;align=center;outlineConnect=0;shape=mxgraph.veeam2.windows_server;" vertex="1" parent="YEG_hQz7j7ZMjrxj2CpJ-1">
          <mxGeometry x="170" y="310" width="40" height="52" as="geometry" />
        </mxCell>
        <mxCell id="YEG_hQz7j7ZMjrxj2CpJ-10" value="" style="rounded=1;whiteSpace=wrap;html=1;fillColor=none;" vertex="1" parent="YEG_hQz7j7ZMjrxj2CpJ-1">
          <mxGeometry x="145" y="276" width="70" height="94" as="geometry" />
        </mxCell>
        <mxCell id="YEG_hQz7j7ZMjrxj2CpJ-11" value="Linux Node Pools" style="text;html=1;strokeColor=none;fillColor=none;align=center;verticalAlign=middle;whiteSpace=wrap;rounded=0;" vertex="1" parent="YEG_hQz7j7ZMjrxj2CpJ-1">
          <mxGeometry x="65" y="380" width="60" height="30" as="geometry" />
        </mxCell>
        <mxCell id="YEG_hQz7j7ZMjrxj2CpJ-12" value="Windows Node Pools" style="text;html=1;strokeColor=none;fillColor=none;align=center;verticalAlign=middle;whiteSpace=wrap;rounded=0;" vertex="1" parent="YEG_hQz7j7ZMjrxj2CpJ-1">
          <mxGeometry x="160" y="380" width="60" height="30" as="geometry" />
        </mxCell>
        <mxCell id="YEG_hQz7j7ZMjrxj2CpJ-13" style="edgeStyle=orthogonalEdgeStyle;rounded=0;orthogonalLoop=1;jettySize=auto;html=1;exitX=1;exitY=0.25;exitDx=0;exitDy=0;entryX=0;entryY=0.5;entryDx=0;entryDy=0;" edge="1" parent="YEG_hQz7j7ZMjrxj2CpJ-1" source="YEG_hQz7j7ZMjrxj2CpJ-15" target="YEG_hQz7j7ZMjrxj2CpJ-19">
          <mxGeometry relative="1" as="geometry">
            <mxPoint x="280" y="280" as="targetPoint" />
          </mxGeometry>
        </mxCell>
        <mxCell id="YEG_hQz7j7ZMjrxj2CpJ-14" style="edgeStyle=orthogonalEdgeStyle;rounded=0;orthogonalLoop=1;jettySize=auto;html=1;exitX=1;exitY=0.75;exitDx=0;exitDy=0;" edge="1" parent="YEG_hQz7j7ZMjrxj2CpJ-1" source="YEG_hQz7j7ZMjrxj2CpJ-15">
          <mxGeometry relative="1" as="geometry">
            <mxPoint x="290" y="382" as="targetPoint" />
          </mxGeometry>
        </mxCell>
        <mxCell id="YEG_hQz7j7ZMjrxj2CpJ-15" value="" style="rounded=1;whiteSpace=wrap;html=1;fillColor=none;" vertex="1" parent="YEG_hQz7j7ZMjrxj2CpJ-1">
          <mxGeometry x="43" y="240" width="197" height="190" as="geometry" />
        </mxCell>
        <mxCell id="YEG_hQz7j7ZMjrxj2CpJ-19" value="Namespaces&lt;br&gt;Quotas&lt;br&gt;Roles and Service accounts" style="shape=document;whiteSpace=wrap;html=1;boundedLbl=1;fillColor=none;" vertex="1" parent="YEG_hQz7j7ZMjrxj2CpJ-1">
          <mxGeometry x="300" y="252" width="230" height="70" as="geometry" />
        </mxCell>
        <mxCell id="YEG_hQz7j7ZMjrxj2CpJ-20" value="Essential application - Taint and toleration&lt;br&gt;Affinity and Anti Affinity" style="shape=document;whiteSpace=wrap;html=1;boundedLbl=1;fillColor=none;" vertex="1" parent="YEG_hQz7j7ZMjrxj2CpJ-1">
          <mxGeometry x="290" y="362" width="250" height="88" as="geometry" />
        </mxCell>
      </root>
    </mxGraphModel>
  </diagram>
  <diagram id="OdghBRnCKHJuueNvD_y0" name="Identity and Network security">
    <mxGraphModel dx="1422" dy="772" grid="1" gridSize="10" guides="1" tooltips="1" connect="1" arrows="1" fold="1" page="1" pageScale="1" pageWidth="850" pageHeight="1100" math="0" shadow="0">
      <root>
        <mxCell id="M2IcjQpeS8N96GttT5CL-0" />
        <mxCell id="M2IcjQpeS8N96GttT5CL-1" parent="M2IcjQpeS8N96GttT5CL-0" />
        <mxCell id="M2IcjQpeS8N96GttT5CL-2" value="RBAC - Cluster roles&lt;br&gt;Service Accounts&lt;br&gt;Network Polices&lt;br&gt;Keycloak&amp;nbsp;&lt;br&gt;" style="text;html=1;strokeColor=none;fillColor=none;align=center;verticalAlign=middle;whiteSpace=wrap;rounded=0;" vertex="1" parent="M2IcjQpeS8N96GttT5CL-1">
          <mxGeometry x="240" y="230" width="140" height="90" as="geometry" />
        </mxCell>
      </root>
    </mxGraphModel>
  </diagram>
  <diagram id="aAMPjWpZ9IcAPNeWJ-cY" name="DR and Backup">
    <mxGraphModel dx="1422" dy="772" grid="1" gridSize="10" guides="1" tooltips="1" connect="1" arrows="1" fold="1" page="1" pageScale="1" pageWidth="850" pageHeight="1100" math="0" shadow="0">
      <root>
        <mxCell id="dIUz6SUITwOZ07Dlx6w8-0" />
        <mxCell id="dIUz6SUITwOZ07Dlx6w8-1" parent="dIUz6SUITwOZ07Dlx6w8-0" />
        <mxCell id="dIUz6SUITwOZ07Dlx6w8-2" value="Veloro - Backup - Cluster and Data&lt;br&gt;Restore from Backup&lt;br&gt;Daily Kube state backup" style="text;html=1;strokeColor=none;fillColor=none;align=center;verticalAlign=middle;whiteSpace=wrap;rounded=0;" vertex="1" parent="dIUz6SUITwOZ07Dlx6w8-1">
          <mxGeometry x="130" y="130" width="240" height="120" as="geometry" />
        </mxCell>
      </root>
    </mxGraphModel>
  </diagram>
  <diagram id="HchIMOpRbyq5y9HJdK08" name="Base setup">
    <mxGraphModel dx="1778" dy="2065" grid="1" gridSize="10" guides="1" tooltips="1" connect="1" arrows="1" fold="1" page="1" pageScale="1" pageWidth="850" pageHeight="1100" math="0" shadow="0">
      <root>
        <mxCell id="zDaQmOFD6J1gRsia0iM_-0" />
        <mxCell id="zDaQmOFD6J1gRsia0iM_-1" parent="zDaQmOFD6J1gRsia0iM_-0" />
        <mxCell id="zDaQmOFD6J1gRsia0iM_-3" value="Q" style="rounded=0;whiteSpace=wrap;html=1;shadow=0;labelBackgroundColor=none;strokeColor=#09090F;strokeWidth=2;fillColor=none;gradientColor=none;opacity=40;dashed=1;" vertex="1" parent="zDaQmOFD6J1gRsia0iM_-1">
          <mxGeometry x="620" y="-130" width="1250" height="960" as="geometry" />
        </mxCell>
        <mxCell id="zDaQmOFD6J1gRsia0iM_-4" value="" style="rounded=0;whiteSpace=wrap;html=1;shadow=0;labelBackgroundColor=none;strokeColor=#09090F;strokeWidth=2;fillColor=none;gradientColor=none;opacity=60;dashed=1;" vertex="1" parent="zDaQmOFD6J1gRsia0iM_-1">
          <mxGeometry x="760" y="-40" width="900" height="760" as="geometry" />
        </mxCell>
        <mxCell id="zDaQmOFD6J1gRsia0iM_-5" value="" style="rounded=0;whiteSpace=wrap;html=1;shadow=0;labelBackgroundColor=none;strokeColor=#09090F;strokeWidth=1;fillColor=none;gradientColor=none;opacity=60;" vertex="1" parent="zDaQmOFD6J1gRsia0iM_-1">
          <mxGeometry x="830" y="60" width="780" height="650" as="geometry" />
        </mxCell>
        <mxCell id="zDaQmOFD6J1gRsia0iM_-6" value="&lt;b&gt;Subnet&lt;/b&gt;" style="sketch=0;outlineConnect=0;gradientColor=none;html=1;whiteSpace=wrap;fontSize=12;fontStyle=0;shape=mxgraph.aws4.group;grIcon=mxgraph.aws4.group_subnet;strokeColor=#879196;fillColor=none;verticalAlign=top;align=left;spacingLeft=30;fontColor=#879196;dashed=0;shadow=0;labelBackgroundColor=none;opacity=80;" vertex="1" parent="zDaQmOFD6J1gRsia0iM_-1">
          <mxGeometry x="1050" y="70" width="550" height="620" as="geometry" />
        </mxCell>
        <mxCell id="zDaQmOFD6J1gRsia0iM_-7" style="edgeStyle=orthogonalEdgeStyle;rounded=0;orthogonalLoop=1;jettySize=auto;html=1;entryX=0;entryY=0.5;entryDx=0;entryDy=0;strokeColor=#B3B3B3;strokeWidth=1;" edge="1" parent="zDaQmOFD6J1gRsia0iM_-1" source="zDaQmOFD6J1gRsia0iM_-8" target="zDaQmOFD6J1gRsia0iM_-24">
          <mxGeometry relative="1" as="geometry" />
        </mxCell>
        <mxCell id="zDaQmOFD6J1gRsia0iM_-8" value="" style="shape=image;verticalLabelPosition=bottom;verticalAlign=top;imageAspect=0;aspect=fixed;image=data:image/svg+xml,PHN2ZyB4bWxuczpkYz0iaHR0cDovL3B1cmwub3JnL2RjL2VsZW1lbnRzLzEuMS8iIHhtbG5zOmNjPSJodHRwOi8vY3JlYXRpdmVjb21tb25zLm9yZy9ucyMiIHhtbG5zOnJkZj0iaHR0cDovL3d3dy53My5vcmcvMTk5OS8wMi8yMi1yZGYtc3ludGF4LW5zIyIgeG1sbnM6c3ZnPSJodHRwOi8vd3d3LnczLm9yZy8yMDAwL3N2ZyIgeG1sbnM9Imh0dHA6Ly93d3cudzMub3JnLzIwMDAvc3ZnIiB4bWxuczpzb2RpcG9kaT0iaHR0cDovL3NvZGlwb2RpLnNvdXJjZWZvcmdlLm5ldC9EVEQvc29kaXBvZGktMC5kdGQiIHhtbG5zOmlua3NjYXBlPSJodHRwOi8vd3d3Lmlua3NjYXBlLm9yZy9uYW1lc3BhY2VzL2lua3NjYXBlIiB2ZXJzaW9uPSIxLjEiIGlkPSJMYXllcl8xIiB4PSIwcHgiIHk9IjBweCIgd2lkdGg9IjUwcHgiIGhlaWdodD0iNTBweCIgdmlld0JveD0iMCAwIDUwIDUwIiBlbmFibGUtYmFja2dyb3VuZD0ibmV3IDAgMCA1MCA1MCIgeG1sOnNwYWNlPSJwcmVzZXJ2ZSIgc29kaXBvZGk6ZG9jbmFtZT0iTG9hZCBCYWxhbmNlcnMuc3ZnIiBpbmtzY2FwZTp2ZXJzaW9uPSIwLjkyLjMgKDI0MDU1NDYsIDIwMTgtMDMtMTEpIj48bWV0YWRhdGEgaWQ9Im1ldGFkYXRhMTQxOSI+PHJkZjpSREY+PGNjOldvcmsgcmRmOmFib3V0PSIiPjxkYzpmb3JtYXQ+aW1hZ2Uvc3ZnK3htbDwvZGM6Zm9ybWF0PjxkYzp0eXBlIHJkZjpyZXNvdXJjZT0iaHR0cDovL3B1cmwub3JnL2RjL2RjbWl0eXBlL1N0aWxsSW1hZ2UiLz48ZGM6dGl0bGUvPjwvY2M6V29yaz48L3JkZjpSREY+PC9tZXRhZGF0YT48ZGVmcyBpZD0iZGVmczE0MTciLz48c29kaXBvZGk6bmFtZWR2aWV3IHBhZ2Vjb2xvcj0iI2ZmZmZmZiIgYm9yZGVyY29sb3I9IiM2NjY2NjYiIGJvcmRlcm9wYWNpdHk9IjEiIG9iamVjdHRvbGVyYW5jZT0iMTAiIGdyaWR0b2xlcmFuY2U9IjEwIiBndWlkZXRvbGVyYW5jZT0iMTAiIGlua3NjYXBlOnBhZ2VvcGFjaXR5PSIwIiBpbmtzY2FwZTpwYWdlc2hhZG93PSIyIiBpbmtzY2FwZTp3aW5kb3ctd2lkdGg9IjcxNiIgaW5rc2NhcGU6d2luZG93LWhlaWdodD0iNDgwIiBpZD0ibmFtZWR2aWV3MTQxNSIgc2hvd2dyaWQ9ImZhbHNlIiBpbmtzY2FwZTp6b29tPSI0LjcyIiBpbmtzY2FwZTpjeD0iMjUiIGlua3NjYXBlOmN5PSIyNSIgaW5rc2NhcGU6d2luZG93LXg9IjAiIGlua3NjYXBlOndpbmRvdy15PSIwIiBpbmtzY2FwZTp3aW5kb3ctbWF4aW1pemVkPSIwIiBpbmtzY2FwZTpjdXJyZW50LWxheWVyPSJMYXllcl8xIi8+JiN4YTs8cGF0aCBmaWxsPSIjN0ZCQTAwIiBkPSJNMjUuMDAxLDUwYy0xLjIzMiwwLTIuMzkyLTAuNDgtMy4yNjEtMS4zNTJMMS4zNTEsMjguMjZDMC40OTIsMjcuNDAxLDAsMjYuMjE0LDAsMjQuOTk5ICBjMC0xLjIxNCwwLjQ5Mi0yLjQwMiwxLjM1MS0zLjI2TDIxLjc0LDEuMzUxYzAuODcxLTAuODcyLDIuMDI5LTEuMzUyLDMuMjYxLTEuMzUyYzEuMjMxLDAsMi4zOSwwLjQ4LDMuMjYxLDEuMzUybDIwLjM4NiwyMC4zODggIEM0OS41MjEsMjIuNjA3LDUwLDIzLjc2Niw1MCwyNC45OTljMCwxLjIzMy0wLjQ3OSwyLjM5Mi0xLjM1MywzLjI2M0wyOC4yNjIsNDguNjQ4QzI3LjM5Miw0OS41MiwyNi4yMzIsNTAsMjUuMDAxLDUwIiBpZD0icGF0aDE0MDYiLz4mI3hhOzxwYXRoIGZpbGw9IiNGRkZGRkYiIGQ9Ik00NS42MTMsMjQuNjZMMzksMTguMDQ4djQuNjY4bC03LjAxNi0wLjAwNmMtMC42NzctMi40MTgtMi41NzMtNC4zMjgtNC45ODQtNS4wMlYxMWg0LjYxM0wyNSw0LjM4NyAgTDE4LjM4OCwxMUgyM3Y2LjY4OWMtMi40MDcsMC42OTItNC4zMDEsMi41OTYtNC45ODEsNS4wMDhMMTEsMjIuNjkxdi00LjYxOGwtNi42MTMsNi42MTNMMTEsMzEuMjk4VjI2LjYzbDcuMDIyLDAuMDA2ICBjMC42ODMsMi40MDcsMi41NzQsNC4zMDUsNC45NzgsNC45OTZ2NC42MzZjLTEsMC43MjgtMi41MjgsMi4yNTgtMi41MjgsNC4wNGMwLDIuNDgxLDIuMDMzLDQuNSw0LjUxNCw0LjVzNC41MS0yLjAxOSw0LjUxLTQuNSAgYzAtMS43NjItMS40OTYtMy4yNzQtMi40OTYtNC4wMTN2LTQuNjYzYzIuMzk5LTAuNjg5LDQuMjg5LTIuNTgzLDQuOTc1LTQuOTgzTDM5LDI2LjY1NXY0LjYxOEw0NS42MTMsMjQuNjZ6IiBpZD0icGF0aDE0MDgiLz4mI3hhOzxwYXRoIGZpbGw9IiM1OUI0RDkiIGQ9Ik0yNSwxOS40MDJjLTIuODk5LDAtNS4yNTgsMi4zNTktNS4yNTgsNS4yNThzMi4zNTksNS4yNTgsNS4yNTgsNS4yNThzNS4yNTgtMi4zNTgsNS4yNTgtNS4yNTggIFMyNy44OTksMTkuNDAyLDI1LDE5LjQwMnoiIGlkPSJwYXRoMTQxMCIvPiYjeGE7PHBhdGggb3BhY2l0eT0iMC4xNSIgZmlsbD0iI0ZGRkZGRiIgZD0iTTI4LjI2MiwxLjM1MWMtMC44NzEtMC44NzItMi4wMjktMS4zNTItMy4yNjEtMS4zNTJjLTEuMjMxLDAtMi4zODksMC40OC0zLjI2LDEuMzUyICBMMS4zNTIsMjEuNzM5QzAuNDkyLDIyLjU5NywwLDIzLjc4NSwwLDI0Ljk5OWMwLDEuMjE1LDAuNDkyLDIuNDAzLDEuMzUyLDMuMjYxbDExLjU0MywxMS41NDRMMzQuNjEsNy42OThMMjguMjYyLDEuMzUxeiIgaWQ9InBhdGgxNDEyIi8+JiN4YTs8L3N2Zz4=" vertex="1" parent="zDaQmOFD6J1gRsia0iM_-1">
          <mxGeometry x="1125" y="280.88" width="50" height="50" as="geometry" />
        </mxCell>
        <mxCell id="zDaQmOFD6J1gRsia0iM_-9" value="" style="verticalLabelPosition=bottom;html=1;verticalAlign=top;align=center;strokeColor=none;fillColor=#00BEF2;shape=mxgraph.azure.virtual_network;pointerEvents=1;" vertex="1" parent="zDaQmOFD6J1gRsia0iM_-1">
          <mxGeometry x="800" y="40" width="60" height="35" as="geometry" />
        </mxCell>
        <mxCell id="zDaQmOFD6J1gRsia0iM_-10" value="" style="group" vertex="1" connectable="0" parent="zDaQmOFD6J1gRsia0iM_-1">
          <mxGeometry x="1090" y="598" width="403" height="107" as="geometry" />
        </mxCell>
        <mxCell id="zDaQmOFD6J1gRsia0iM_-11" value="" style="rounded=1;whiteSpace=wrap;html=1;shadow=0;dashed=1;labelBackgroundColor=none;strokeColor=default;strokeWidth=1;fillColor=none;gradientColor=none;opacity=80;" vertex="1" parent="zDaQmOFD6J1gRsia0iM_-10">
          <mxGeometry width="402.99999999999994" height="80" as="geometry" />
        </mxCell>
        <mxCell id="zDaQmOFD6J1gRsia0iM_-14" value="" style="shape=image;verticalLabelPosition=bottom;labelBackgroundColor=#ffffff;verticalAlign=top;aspect=fixed;imageAspect=0;image=https://iconape.com/wp-content/files/rz/181411/svg/grafana-seeklogo.com.svg;" vertex="1" parent="zDaQmOFD6J1gRsia0iM_-10">
          <mxGeometry x="230.00344023323615" width="85" height="85" as="geometry" />
        </mxCell>
        <mxCell id="zDaQmOFD6J1gRsia0iM_-15" value="" style="shape=image;verticalLabelPosition=bottom;labelBackgroundColor=#ffffff;verticalAlign=top;aspect=fixed;imageAspect=0;image=https://symbols-electrical.getvecta.com/stencil_92/47_prometheus.0053897f90.png;" vertex="1" parent="zDaQmOFD6J1gRsia0iM_-10">
          <mxGeometry x="7.637026239067055" y="7.5" width="70" height="70" as="geometry" />
        </mxCell>
        <mxCell id="zDaQmOFD6J1gRsia0iM_-16" value="Monitoring and Logging" style="text;html=1;strokeColor=none;fillColor=none;align=center;verticalAlign=middle;whiteSpace=wrap;rounded=0;shadow=0;labelBackgroundColor=none;opacity=80;fontStyle=1" vertex="1" parent="zDaQmOFD6J1gRsia0iM_-10">
          <mxGeometry x="105.74344023323614" y="-8" width="187.9883381924198" height="30" as="geometry" />
        </mxCell>
        <mxCell id="sWWN8BbJRaAaWUyCIHw_-1" value="" style="shape=image;verticalLabelPosition=bottom;labelBackgroundColor=#ffffff;verticalAlign=top;aspect=fixed;imageAspect=0;image=data:image/png,iVBORw0KGgoAAAANSUhEUgAAAOEAAADhCAMAAAAJbSJIAAAAw1BMVEX////aTjHmUizmUCn76OTlSh/oXTnmTibYQh/88O7YPRX97+vpZkPlRhjjeGTywbbqcljZSiv2wbTrgm7ZRyjdX0b32dPxoI385N7re2DkQgzkPAD/+vnztqvvmIblRhbqno/yqpn40MfcVTnmiHX33NbYQBzuk3/ujHPrc1TshXLnVzLzycHut6/gcl/bUzbsqJzXNQDfa1XdXUPre2XpaUvzr5/ukX3jNADssaj0y8TnloffbFfkiHneZU7ifm/thGh1uI4mAAANIElEQVR4nO1cCXeqPBNGCJuIiiIqoFjrWrXX21a72O3//6pvwr4EpX1vK34nz+lpETMhDzOZmUygDENBQUFBQUFBQUFBQUFBQUFBQUFBQUFBQUFBQUFBQUFBQUFBQUFBQUFBQUFBQUGGLcsyUuCXfe6R/ADs6XqzfavX6++v9frH4bnxgs49pH8Ju3G47fyRJF3zoUva9d3Hdnrugf0bKC/tv5hbJQWgWf1zQPK5x/dfgZ47Mz1NLoKuTTYXPSnl4bueVB6YZ5pjvXHuYX4b8lZP8dOun1FGo9rsfnqZehy/ShmrfGZG2ZMVrTK6RM+6vc5qq24zE+Ks1N8vzq+i91mWR7XHMAey39Gk7WVZ6ss7gYh2j7+pEhlWKrM35dyj/gIanUz4w6Z4gK9Q6EvTTaSPy4mNm78kgpWZAd/ZgZleTzppineXMhk3f8h2iKchw6x9hY42GUPW3y9Di0bG/nQ9xlB+db+eydts3NA/LmEuGhkT1fcj768X9Fxm0oboVaW38ntUdJeZg/qIecNsrj2GqIqTG4UZkeKGdDjz+E/CJmhG/2BkzOrON8F3DUjbzDMhuwHrHZ+XwElsCeEORwlQmNb2/chGqmiQba+JDkm7L7dDRaR4DlbKTPWKvg0aXWudKU57iDFFP5R6Kr4R5xYoTHnV9I3fSJ5IdcyCnKJWtDLbaTbEYVQxnZHUMYJm26rrT8bkBE6Tzjb+k5BvSXbnpqPMZlYPra8x27t/yWZakZ7PNP7TWBO9ozTC3zW8P347zxDXhPUHviWvpY37f4g60dwwaFQiB2JUvMhoE6ctOJuyKpGsEn3iUjNGUcPetX8wviZJQOQsaX6as3z3FCLHBi13gqMPshKll18ffBEY90Q/c5ctwdiTUCbHnd7+6siL4pmswgmh6TA8yllozcpopjLZ4qQWoe06PMop20gbgtS5gcjaqJJysJhbJQcM/e33Bl4YLznB7bgUyvGmryU0U3JsI07DGMhpUKVybxyXOweuiUM9lYHJbTJDvYQT8S9xpNLguBRpxezKbY/LnQHElSE4mhPr2TyGJVwljsmO5lRRIo+hdls6VzMgritOBra8eah1SrcbRaycnZ5Pcp3MMCjMlQg5DLX342Ioh+DlMKxUj4vlLIJB+RfDUDq+S59TjQq2AMqENMPg+ZLj+RcKoqiW2vEvvw617cd9VXJHfUyJbqzQ9Jn2enhLMrwvO8MZstF025aqM+lISWJckWZVvb41kGKnlpfl8zSNZDzU/R0WZX24HebJoI/69sXPXZRkaVErnw5TOY32Ho0Q5SVgcoxF6g5p9dLlNOm89KsVwdTSRB+WLi9l0pm39qU9pPSGcAnXFky60qbXvyDcSz+8Ucb1YSZ2z4o/kWcP08JlXONnakradeFtssy+qnZbvmmI9z1Tw9SLrvGyz0mVstYmt7PPx3w0imCbLZZ/wcJ/EZvsQkiTCiErWM5N0inxYbZv4VQN8lzIlvW1ahFk6x+zcu49ZffltQ7qnQZq3Kflypey+Ujvy2ud0zIMwby1EoZ7D+vqtxgaKYal3LTwINf1f8GwWspQ4SH1INf3GJ4qz50XyeT0ewxLuonvQ04UlLQOfh/vJF4Sj0PjxxbLjORzX3/qRfAat23Skw2lgn1IxO/gbTwygpf14hJ/S7hsSiLtT13cd4jINqxoZX0cKoYeYTN4OzUIyCzsy1meyWKdWSvklSQyD9NIpU3XkhhnSjZk96ik81j97reH+l2MU1rMKe+m62v6pORuNIb1n6S7wU96Z5B+b2F2ISbqoXeb1M/fbJ4ivyXjSiW3+F9OoOQDRNp9hmKK4HVpV0x5sLeSnqCYLGKjSZygJmmXMwUjoHr8FS9Num8EWzRyb554hV3vlLCGXwR24y6pqM7hebNubEZ1LcFPm5T7NZljkLf6LK5HHSxXk/TEqWrduIQ8Jh+N1+v0Fn1Mffr7W+kz7ZOQX7bvpKJvRZcqk03pnrj4HpTp9m5WlSRvxYR/S7OqdrO5/H/7kQBqbQ8fHx+vdfh12IwvMToUg3LZboWCguLSYQPOPYYfhTEfzn9ux8Ld5ztziGpZvNn9iY7tYc2yTBdWbXHGLLilsvyPMJT7PAvgOA5+8ebibO+K/yBDkeVMS6gJlslzLC+QXqf7DfwkQ27lTcFedwdsrd9bz9ioFZnMjzIUAifT+xRZ8eG35qKyEKzovajfYcgoFssJvzUVexan/jpD5opn1aufuA4BPZM9A0PDZPnkBpASX6fKSt6qVYl/Y5Obpc4iYBiVSSOGtkL8pwrKF1Zedmw4KYaIZfkF7mnYHeIS2KDdfAza9q4e+s3mQzfmimRoZnjNms25XzMb30Cz9j510cb8AYTnwRRodbtzHiZ9F2MaY7iegPRNOrsxHrF0OzqNrrrdyNjsAXwKOfW60Lj5sEckhj3H1+ETzjAQ54h835PsLS1exODNXfgyds/irRYztlT3CwuPED2YbjunFnfKjZXJuzD9iy3gM8Rh0T3ZCBkizpUOm/n8dp606HABR0NQVSG6001H9SMCI89xF/CjPjUIDMfAcIQPLLiesoTo4TNsCXDHVUFYqeBu+WD6KGBorTWcMHEwZcE1Kk1eVE1HBFvYRd2O8Khr/SULnXiebGGqLkMVEDGcCiLvuF3xy6hK1VJFTt31+zAEzvHjtVHjuFrEMMairbKiKCxZh+d6BIYLkeVbPsPhFdxytrbADBusyDlLAyG03qksxwZ5ATS72vH83DC6ItyOmjF0zF3LaCxNyB4eg14HKsfvxoqsoIXDiTvc4XgwAK8mTloDAPIYip99lZ83plc1lY25gzXcZn6tyDLamxwnGMcZDhxWXI6Rgoy+p5skQwOixc5lLnBcU1Bv/Bs5tThuFShuyLGcagQMWZ53h8zYkC+IK27lkR/AbbD8fscrTuwH+gBZnzlK+1KwhU+P1hBswPSnbK8miv5psE2Of5CPMZSbIsf6Zz0h+TPGcLzjWNVzaDWgwbeDpjc86Crozp4DlX7IkKsFHgaGFcUasAbV8zb2gheboXtc8Kzpz+wsw085dsG5dzzn/ZuOsRdZxzjGEM6LCyYOGzoQvH6ncwFslLNDhqug47HAsU4kA72wZi9gyAde001xxaBRA2b0jdcvz4lRtgsz3eeVYRhLNhpw51beoROPk3Bpj3keQxhqmuEQpi8k3rUanuEc/+nfbCARae1KjX1g8G0NPluRChlmy8cHY7G+5oa8uIx5Rpi6CzJD8SH8hMDJWe7RQGXNSNp+ED3meQynYIZOopSOGbqLJ/BfoiMMgqCCdRh4ZrBkVo37fjyadkgjjEMwmNiQOc5nCHZzExOGm+ylvtmcJnRN4JKBodvqkQ/nFcaNzzzX04B9i7tWPP3AOnQcVYUV8HIf3SzcQUAKwYdEfAIf4RMLFZVlWAsYYj3ftAPcrAKRo1lbW/QnwoPIrmLSMF8s+RhDxcIOr9kKEyBgCOY/brWmyV2SBEO47f1ExhUSK8DQxt6IjxDqthBDrEw2Ji1ynNU7xhDSA3wJxxkFXgszJJRoEgzZ/8IQiLArIY6V5/CLM0xIC7x9lCEkdCsV5pzTNIozFLgYD9zhVxhik35UUByeRFGGXE1OSAdRIY8hzqBZh2PFGirMED6s4m2mZtzTnJ6HYpshoBBDHMGFrOxxhngsO0yxKEPsS834ungPYWFYmOEqZQFfYshMeM+1ZBmy/BGGbgPXGxdhyGwh14uFUQhKrNkozHDBcytS3QAY8t3Q5eUx3EOnhOqYGzBDYbTiMiwgSLhqKcTQvR+Rrx2IYcJRhKEBGm8T1IAZzk8yVODu7ggDfAizQgYHTfDXqS3z/VcY4iRG7AdMppBiO4PiDOU2H2S7SYZcPF3IY4hHLy6yN6gLp5f+pcd4vWWmGM598y7GUDEhjPoJ3XQHAw50UoQhs17hpVQ4gLEvi5ef4UoznyGsLeAiofTaP0I4zLbdC+wFfrUKVH4VLGggALguqhhDWLbAZczFwNj3gazaDlgVYsi0YO3IO7XuYLCfL62noF9YILLO7vHRLZvkMmTGmKIpLPaDwaLvhAVI0BErWsvHT151HgcBwwZv1oawQIXJz7HjLzBkjCWOMKrjLvEfQ1LFGLoVAkhs8HoeLDwggrWDz7rN8hlClgIRnBM9aXUR/JOCvlcGgaV5U177VmoPHejRwUUGUfTGYj9apkhguLKsVaL6LV/xbrFEtXbrqOj1ZFq7iOGT+TSI9xB9hbqWV2qB/LcflnkMy4FTjtusBV3FnsB8sMyn0DKVvWiqnrS1bARXV+YWPumYXQXWpn7z8dLtE4YpjINb0ev1CGU61Otl/hnC9Krb7bYSoS2xKyfDp8gloNSG3RhLd/fJuNHqLoZXnjElhN0Nv/j1jT2WbiWllUF32HVDiY3C5koLtxz8nzyMREFBQUFBQUFBQUFBQUFBQUFBQUFBQUFBQUFBQUFBQUFBQUFBQUFBQUFBQUFBcXH4H5SRMNmA32dWAAAAAElFTkSuQmCC;" vertex="1" parent="zDaQmOFD6J1gRsia0iM_-10">
          <mxGeometry x="329.99600583090375" y="13.5" width="58" height="58" as="geometry" />
        </mxCell>
        <mxCell id="sWWN8BbJRaAaWUyCIHw_-2" value="" style="shape=image;verticalLabelPosition=bottom;labelBackgroundColor=#ffffff;verticalAlign=top;aspect=fixed;imageAspect=0;image=data:image/png,iVBORw0KGgoAAAANSUhEUgAAAYUAAACBCAMAAAAYG1bYAAABj1BMVEX///84v7AjHyDqQ4vzvgDwwAAwppUApOEAm4/Yow4AAAD64OzqSo4xvq7P7+2Pjo786bXs+ff9xQA2k4Uzr55eyb2NdRGotryut7saHiLpy4r0ncHpMILWnAD33Iuq5KMlFhqT29Kh3Zp91cr29vYBCxFdvLMGCSG24/WY1JHzuQC47rHr6+v656ft8+16eHnE9b7F3cOyzK+fnZ7b/9YwLi5dWluy16607Ky0s7TZ6dfD9LyKvIXj4uM/PD3ExMTQ+sqYxZPW1dZvbG2lxKHL28lMSkud5pSOz4eNx4YZFRa14t+VlJSDgoP86/L+/PLzy0j99NvubaMDGxRLuOcmFQwRfKeZ3NSNt4cqJyj67L/42Hj10mP99t/5zN7324T2tc/xjLbju1LyxS710Fjlw2fxhbHfsz7sW5n3wtgMl8QfquOU1fHRpbiSM1yyRnTIRX0cNCxEMzpnNkuAPFlLV1wfVW4bQ1drOE0cLjhxxuwUGxhabngofXEvUU0Ua5Avbmbd0LaJvp8tW1aMv7llTa0RAAAPkElEQVR4nO2cC1vcxhWGF3nBYWMjaOw2iYnNZeIGEAhHlWKBpcGSo8CyCjhxSgS4cYLTpnGaOJfe4qZNm/7wnhlpl71ImpFmdqGOvj5PCVqt5ozec5uRcK1WqVKlSpUqVapUqVKlSpUqVar0vGsv1lmbMXK9+6KA3pVoyMPD1etHx8f7+4+Pj66vHj6UeOnzr2sXLpXVhUu/k2PD3v3pj/ZP6j0a3z9avf+zCYprsxdKavbCIykW3F89PhlPUX385PHqfSlDnHuVp3DhmoTh9w6PIAjSICQkjg5/DgFRmsLsx+JVYe/weDwbQcLheFo6h4fTpzo8vH/27UBZCrPviUO4z2SQxIPsvDTdU4FO9o/POvOVpDD72YuiIz/8dHJymQ2Bcrgut2Wa7u0ElpeXx8+2BJWkIN4eHX7y2mu8GMbHH0u9R30UYp2snl1iKknhkeCwe6uTwGCSG0N9XOY9SqVQXz6RX4E4VYrCrGh7tHc9gVAAw5GU+VKlU6gv14/OCEMZCrPvIbFBH37aZsCPYbx+JK04ZFAADnIzH7dKUBBuj3ogFMDwWBaGTAr15f0zwVCCgmhl3vukB0IBDMeSMGRTOCMMxSlc+qPYiHuf9kGYnORYNSQY5OTtHAqQlM5gI7E4hUdiA6ZAmJzkpDBevy4FQx6Fel1iG8CrohRmrwlW5tUUCNw5aby+KmPS+RTq0zLGKKSCFGZ/L1iZDyfTKPDmpPrJoYxJ51NY3h95TipGQbw9+kMqBM6cVD+RUzoZsVD/SMooBVSIgvju0asZEF7jyUl1Wd08g8LyyagXb4UoiLZHWfmIKyfVTz6SdXNYsbAspfoUUBEKs49ER+tfKfDnpPr4sZSSQMWk8HjEwVCEwseC7VFt+rUcLWfflfGT/evyGLAp1OsyR+MQPwXh9ghm/2qermdqWvJ7AEwKyyOuz9wUZDxcOy9iU9gfrUG8FGY/k/Tay3kQOyONj7YwcMfCcwSBg0J9tAs3TgrCz3XOlTgojHZnlY/C8wWBh8JomyQuClIqs/YyS7tv9GtqZkZ84EGxKSyPdkePh4Kc9sh4/ZV8NT9/crFPT548+GIIHDgojHb1/Kcvv/zqq6dPn166lE1BzlvBekPJ1wf/6ocQk5DP4dxRUBvvU339zbfffZXOQnj3iEr7c5NF4S+pFC5e/F42hnNIIbkHzWfPnikExQCIR1IG8kwWhbm/ZlC4+EAyhvNLIdazZ+9Hf/vyaRcJ4YdriTCDAejvWRQufs9jw627d98i/9tgnjk6CmgtFuM0dTBbP3sWfduJCAm7R7FsVigoSvR5JoY32AOsbb8T6y3mqSOjsHZ3m2rnVv55KRQIiPe/+e5p3B4JvxWcKGQVZygMv82kwJGTNt5Z/w3RjbvMU0dGYWP7NhXLM9Ip0ID429NLs5dkQaj9gx0LORQ4gmHtPFJ4Z4vaVJYCKdfRd0+ltEdUlhiFL5gDnEsK2zGFhdIUgEPjh6tTUqwBMRvVzAVDXJ+ZAyQZaet5ozD3z4mJKweSusRgNBS2thbOHQWwqTwFAgF0c1eKQe4oKGxtnUMKWyIU5syXJmLNywiHUWSkrfNIAUxaL02hGf1wJaEwcVNCdeChIFSdN7Y3t+iMzxWF9S0hCsopBKgO4llp+J0qobC+zkfhFwzJeR82obBensKPEz2aFzUorw1gU+BYtREK63wU/v1Lpv5zEGs+XZw9C6FAbCq5Xpj7qRfCxBXR4mBzUMjewWAnJKCwAvPd3GT5HbHl10y1a+LldF3lpbC5Tim8mX9eOoWkPeqCcPnyotiu3suvMCnk7OZxTJpS2OSigCOWKXMJhStjqSpEgdhUhsLc1y/1QSAjLwrVaPbOtpK5s/0kY84bt7r0FlDY3FxZWbjbffRW2nYmNkdGgXrGysKb+S6cRmHO7K7MNBLIyLxDp0tjLts+yKLwIAP/RnsXNdEKgbCysLQU72PGupfyRY+5eClNYe3uUpd2thObdu526d7ADmtqLPRBmGiPvSiCofQTz8x0BJ5G12m0AJLAXyG6ffv2jVgLoKU0Cg7TI0pT2Ni+cWoAaIUaRU1Z6LAZsCmFwtxPfRAuj8nAYDRez1djsEV68uTB99l5ELLuKYUEAt1IPoWwsJ1GATG3FktTuLUd76O0rVrpGHW7YxQPhcH2qGt0gU5J+xVLAy/CkFdhcq64sbPZBaEz365IyKDAftghRKFt1GaXZ3TbxEFh7utsCDD8QRkAQ1J7tdyTjXrmmzZjImbbLEIhhUGvUWwKqe1R1/Bjcvb2pIjGQk42Ipk4nYLDgCBCYZMFgYNClAuBYJD2xEFYSR9IZ3v7dsp0MykwnzmJUejzjBu9nsFBIaM96jJAqFGSqo2d7VNB73GDzndpp0t37qSvl4zhUbjRXYxvxD+7OyR2jzTXt3t02h51Y5B5J4XUs2p7cyee9xJ71cZeQ5bvVBPPaLtB2zPudOnD/PXCQHuUAgFMKJ2T5m/maTFd8/MHu7mtUqK1OwsxhfQc1Cvk59fn8mvn9htIVG+3PeNe99FBx+imMLh7VNQEhnZfyFPGxhnR2NUDJvqYQlZX1C9GlyRrByOmsLDEv4/EaI+6bCi7zT1zMwdC1mjxkJeZ21hrOwsZa6I0MRZu0igs0KKww01hLnrpChcEgZyUFwx5ECiHsfwlYzEKjHcFJVJYKESB3R6dGlG6T1osFwoJh9z3coBCzjptQMjKy0myKNxJbOKlwNMenVpRdu02M5FZFZgUGIuVtTuFKNSwkhMNZ0Qhb/cozQq+mQ4qKyfxQMhfuq/dWcpbp2VPffgUljgpcLZHHStKB0PtIBVCTvrrHZhBIXVNlCEtp0BLpbDESWHO5K7MxcxIUWqfxBkKeQWJUEhfmWYJZy/dpFXnxCYeCoUhgEoHQ1q7yjEenXxeVwAUMvYHMmU3szBIi4XEJq5Y+KFAZW7fEO659mvmygAErlBg9EhacQo1NQvDGVDIfriWd0vK760ORAMPA+bU27FwpwCFmtFIxzB6CnM/9kHgyg+lF9C1AQyckcBYpKx9mGyWFaGA1PR+VRqF7SWyx5uxs9uR2sh/uJZ9V0TeyJhZlA4Bpvx2LNaf8vXKTsUgicLavQ9jMf+ujXf3aMASkaduMwcFIYzJ+juKAdlu2stAcihw/43n6yUhCKUk0O4VfgiMuiwozx8sDrIocErtLwq8EIQtibMS38bF0AKBChluf680Ygr/nSgJQeRpT6KpmzwQ2Hva4vL0Zm88jJjCfMl8NCbjrZiZqcUxBgdgMJK3Pjzf7OZwphSKQBDY0uvS1CJ5lJaJYEQMQMgL3UYHxFlSKAQBJMWUmd3FsRQS9Dnn7khfu0FYDcwmVYeC2N8v8GpeAIJQr9qlmamDxatjfU+ayaPm0b9zo3m26luB6ebHwphkCosvnFLIefyeLomvS85MTe0ezM8nL13wvXUxLCGkaWsz+ZI74tRuR1OFdW7eD6tUqVKlSpUqVapUqVKlSpUqyZdnF/2HPTAeiiE/axmRlv2h56Uc1K2hGZPIduKfmlZDOM0ECUNku1LqpHOFbFEjDTObAvLDlKNDp4CaRmd4xzSGMoSlpxx1aF6w/KJX04KWoD0xBc2LWSBNQwhMQY6nIXIb6C+aE3+qeQ78qvs1zZHzr46nCykJBcOuae5QKNRSKRgRCULbLnoxORQ01Y3cFtxYbLmBb+kIW1HkhpoeuZblwEGTfIpUVzEDXNNd3TX94SQKqjYFoh4KUtDHF6EUEPW40/8wTOf0tPijzintwdsHUHyE/qoFRg0JGUcohIqNbQh9x1Q9HARYM3WMbYxw4Nu25tg2Npo2eIrtYUjZemTYduAPLxooBUe3kWoABT8MLAN8oGUFgY/JKwqGTo9oITlS0Bs81dcxohSQ7VuBReoD1i3Lt5FtKaFqI8Oo0c/IGOSHjsnvuq/CUI5qWUEIrLwWwroHxsDnjhbohm+1HObomQIKyCXpv2UhTHzBcGtOM6ldvto+DWIuTOoBrQuGm1PUBUUphK5DkrfmRlZoNQBHqKuqG2g13DDJEQyc4IhpFfIGHIV2q6kmFMCbdJgqbvq20TISCrQuhI3QgHxoNELbAF+otUzD1mFMzyAeCGPaDVfxHaxYhmEABTM0WoqAYwIFLSKZEJsajjwy/RoiVyUeQ6szwkZLNVswsNUi3QulgCMB8gwRCgZMOaZAMlIYxBP04ChuEBdxk76Bmsx/ZV+HC4UQ/u26QDoBo0E8CrUzku/D0fjyekDPqTmBTbK/HlthKw7cjJaHiKuQA3FdUM3yt4RQUCiFSNMCq6UqYIDTsiIFSgGlYLi+agAFiMpACbwRUIhanqvWuijYZLbIcWziuQ1y3+ld1BzPMItQ0Ewb7qnd9Drfx40WvaM0sjsUvEZcodWmTT/BEJgIhST+4TutBqFACkPSTsUU7EKm9IrGQjxTrWZHepis4pABXkYooIAY7MZdgAM+OAIKkaI43RSw6SHDjIKgQwFulRaaZuAWmrpjBr7vBxBNhIIduG4AFDQ/Ml1I8qcUcELBs6AfgTKAFfiab7qapsJ33CahQIi4cUTFFLBZfjlLqnPgk2CFtBZanQYA0EIhhhhEQUjGiysEskZCwcBuiHpjATcMT/O6KdjkCC5IQTdaLcOgGQk3Q89xmi3yEhZuuYEzGAvwiR1GPsKKSr5n11oQHBCRCYXYQaVQUCAEFEu1yDXURhAEoQZEVD3SSQ3SVa+l6HrQdD3bClVLwQmF5vBaVQQZ0u6pC60AGU1wDaebQugiGiUFrnza98KlbXqhZtLqY5hZvF4gYdbo6o+BjdeuPhadeyOhUPPjeiVOge4jedAikD4saGHbADeElqFFjiO7ZTjk/7BneA5xBy/ZR9IKbz/xC0FbjHxLiymoGnQNIcGCHHD/UwqGgjXHUIqssZAfeLAw1SgFSDuwOG2E4PAOXAhutN2w4TOS7F3X0xyHLGY1Rw80x9UdRJaquguntsBDYgoQGo4DnwhT6FbcfobFmj/5Qq5N/plRg+xgaEHDVBqWU3OsputaQeR5ZkLBCRQ44hZKjZ4L3yHdLWRWzVdgORrAWimKzEiB1YHjKpGvwaVrOFBMxUKGYpoRVHQgbromlE8M3zADM3BshW45+HCCiTUrLl5yKNgR+AIOVPaZw5VG3AC8kvx0PI/um4DHwk8E7SFtZ4g/kyPgroV8xoH+nuzkwTchng1wZduDVtwwaMqB5QCOd/Mc+MyrafAJ3amjp5A2nZyheeQ20cshDEtajV4NLidnCaURf2sGw6u7lbjkYVzMtypVqlSpUqVKlSpVqlSpUqVK/7f6H5z9FXJwBvsdAAAAAElFTkSuQmCC;" vertex="1" parent="zDaQmOFD6J1gRsia0iM_-10">
          <mxGeometry x="26" y="18.769999999999982" width="159" height="52.73" as="geometry" />
        </mxCell>
        <mxCell id="zDaQmOFD6J1gRsia0iM_-17" value="Internal Loadbalancer" style="text;html=1;strokeColor=none;fillColor=none;align=center;verticalAlign=middle;whiteSpace=wrap;rounded=0;shadow=0;labelBackgroundColor=none;opacity=80;" vertex="1" parent="zDaQmOFD6J1gRsia0iM_-1">
          <mxGeometry x="1090" y="330.88" width="120" height="30" as="geometry" />
        </mxCell>
        <mxCell id="zDaQmOFD6J1gRsia0iM_-19" value="" style="aspect=fixed;html=1;points=[];align=center;image;fontSize=12;image=img/lib/azure2/networking/Service_Endpoint_Policies.svg;shadow=0;dashed=1;labelBackgroundColor=none;strokeColor=#09090F;strokeWidth=1;fillColor=none;gradientColor=none;opacity=80;" vertex="1" parent="zDaQmOFD6J1gRsia0iM_-1">
          <mxGeometry x="1060" y="110" width="38.75" height="40" as="geometry" />
        </mxCell>
        <mxCell id="zDaQmOFD6J1gRsia0iM_-20" value="" style="aspect=fixed;html=1;points=[];align=center;image;fontSize=12;image=img/lib/azure2/networking/Network_Security_Groups.svg;shadow=0;dashed=1;labelBackgroundColor=none;strokeColor=#09090F;strokeWidth=1;fillColor=none;gradientColor=none;opacity=80;" vertex="1" parent="zDaQmOFD6J1gRsia0iM_-1">
          <mxGeometry x="1063.68" y="170" width="31.39" height="38.12" as="geometry" />
        </mxCell>
        <mxCell id="zDaQmOFD6J1gRsia0iM_-22" value="" style="group" vertex="1" connectable="0" parent="zDaQmOFD6J1gRsia0iM_-1">
          <mxGeometry x="1254" y="89" width="393" height="410" as="geometry" />
        </mxCell>
        <mxCell id="sWWN8BbJRaAaWUyCIHw_-28" value="" style="rounded=1;whiteSpace=wrap;html=1;fillColor=none;" vertex="1" parent="zDaQmOFD6J1gRsia0iM_-22">
          <mxGeometry x="273" y="170" width="57" height="160" as="geometry" />
        </mxCell>
        <mxCell id="zDaQmOFD6J1gRsia0iM_-23" value="" style="rounded=1;whiteSpace=wrap;html=1;shadow=0;labelBackgroundColor=none;strokeColor=#09090F;strokeWidth=2;fillColor=none;gradientColor=none;opacity=80;" vertex="1" parent="zDaQmOFD6J1gRsia0iM_-22">
          <mxGeometry x="28" y="30" width="312" height="380" as="geometry" />
        </mxCell>
        <mxCell id="zDaQmOFD6J1gRsia0iM_-24" value="" style="shape=image;verticalLabelPosition=bottom;verticalAlign=top;imageAspect=0;aspect=fixed;image=data:image/svg+xml,PHN2ZyB4bWxuczpkYz0iaHR0cDovL3B1cmwub3JnL2RjL2VsZW1lbnRzLzEuMS8iIHhtbG5zOmNjPSJodHRwOi8vY3JlYXRpdmVjb21tb25zLm9yZy9ucyMiIHhtbG5zOnJkZj0iaHR0cDovL3d3dy53My5vcmcvMTk5OS8wMi8yMi1yZGYtc3ludGF4LW5zIyIgeG1sbnM6c3ZnPSJodHRwOi8vd3d3LnczLm9yZy8yMDAwL3N2ZyIgeG1sbnM9Imh0dHA6Ly93d3cudzMub3JnLzIwMDAvc3ZnIiB4bWxuczpzb2RpcG9kaT0iaHR0cDovL3NvZGlwb2RpLnNvdXJjZWZvcmdlLm5ldC9EVEQvc29kaXBvZGktMC5kdGQiIHhtbG5zOmlua3NjYXBlPSJodHRwOi8vd3d3Lmlua3NjYXBlLm9yZy9uYW1lc3BhY2VzL2lua3NjYXBlIiB2aWV3Qm94PSIwIDAgNTAgNTAiIGNsYXNzPSJmeHMtcG9ydGFsLXN2ZyIgcm9sZT0icHJlc2VudGF0aW9uIiBmb2N1c2FibGU9ImZhbHNlIiBpZD0iRnhTeW1ib2wwLTA3MyIgdmVyc2lvbj0iMS4xIiBzb2RpcG9kaTpkb2NuYW1lPSJSb3V0ZSBGaWx0ZXJzLnN2ZyIgaW5rc2NhcGU6dmVyc2lvbj0iMC45Mi4zICgyNDA1NTQ2LCAyMDE4LTAzLTExKSI+JiN4YTsgIDxtZXRhZGF0YSBpZD0ibWV0YWRhdGEyNjE5Ij4mI3hhOyAgICA8cmRmOlJERj4mI3hhOyAgICAgIDxjYzpXb3JrIHJkZjphYm91dD0iIj4mI3hhOyAgICAgICAgPGRjOmZvcm1hdD5pbWFnZS9zdmcreG1sPC9kYzpmb3JtYXQ+JiN4YTsgICAgICAgIDxkYzp0eXBlIHJkZjpyZXNvdXJjZT0iaHR0cDovL3B1cmwub3JnL2RjL2RjbWl0eXBlL1N0aWxsSW1hZ2UiLz4mI3hhOyAgICAgICAgPGRjOnRpdGxlLz4mI3hhOyAgICAgIDwvY2M6V29yaz4mI3hhOyAgICA8L3JkZjpSREY+JiN4YTsgIDwvbWV0YWRhdGE+JiN4YTsgIDxkZWZzIGlkPSJkZWZzMjYxNyIvPiYjeGE7ICA8c29kaXBvZGk6bmFtZWR2aWV3IHBhZ2Vjb2xvcj0iI2ZmZmZmZiIgYm9yZGVyY29sb3I9IiM2NjY2NjYiIGJvcmRlcm9wYWNpdHk9IjEiIG9iamVjdHRvbGVyYW5jZT0iMTAiIGdyaWR0b2xlcmFuY2U9IjEwIiBndWlkZXRvbGVyYW5jZT0iMTAiIGlua3NjYXBlOnBhZ2VvcGFjaXR5PSIwIiBpbmtzY2FwZTpwYWdlc2hhZG93PSIyIiBpbmtzY2FwZTp3aW5kb3ctd2lkdGg9IjY0MCIgaW5rc2NhcGU6d2luZG93LWhlaWdodD0iNDgwIiBpZD0ibmFtZWR2aWV3MjYxNSIgc2hvd2dyaWQ9ImZhbHNlIiBpbmtzY2FwZTp6b29tPSI2LjI2IiBpbmtzY2FwZTpjeD0iMjUiIGlua3NjYXBlOmN5PSIyNSIgaW5rc2NhcGU6d2luZG93LXg9IjAiIGlua3NjYXBlOndpbmRvdy15PSIwIiBpbmtzY2FwZTp3aW5kb3ctbWF4aW1pemVkPSIxIiBpbmtzY2FwZTpjdXJyZW50LWxheWVyPSJGeFN5bWJvbDAtMDczIi8+JiN4YTsgIDxnIGlkPSJnMjYxMiI+JiN4YTsgICAgPHRpdGxlIGlkPSJ0aXRsZTI1OTYiLz4mI3hhOyAgICA8cGF0aCBkPSJNNDEuNjgxIDM2LjMxM0wzOS4xOTkgNDZsLTguNjA1LTUuMDk1eiIgY2xhc3M9Im1zcG9ydGFsZngtc3ZnLWMxNyIgZmlsbD0iIzgwNDk5OCIgaWQ9InBhdGgyNTk4Ii8+JiN4YTsgICAgPHBhdGggZD0iTTI0LjAyNSAyNS45OTZzLS40NzUuODYyLTEgMWM2LjU5NCAwIDEwLjkwMiAxMC45NSAxMy40NjkgMTcuMzRsMy4zMzEtLjk2MmMtMi42MjMtNi45MzktNS44LTE3LjM3OC0xNS44LTE3LjM3OHptMTcuNjU2LTEyLjMxN2wtMi40ODItOS42ODctOC42MDUgNS4wOTV6IiBjbGFzcz0ibXNwb3J0YWxmeC1zdmctYzE3IiBmaWxsPSIjODA0OTk4IiBpZD0icGF0aDI2MDAiLz4mI3hhOyAgICA8cGF0aCBkPSJNMjQuMDI1IDIzLjk5NnMtLjQ3NS0uODYyLTEtMWM2LjU5NCAwIDEwLjkwMi0xMC45NSAxMy40NjktMTcuMzRsMy4zMzEuOTYyYy0yLjYyMyA2LjkzOS01LjggMTcuMzc4LTE1LjggMTcuMzc4em0xOC4wMTgtNWw4IDYtOCA2eiIgY2xhc3M9Im1zcG9ydGFsZngtc3ZnLWMxNyIgZmlsbD0iIzgwNDk5OCIgaWQ9InBhdGgyNjAyIi8+JiN4YTsgICAgPHBhdGggZD0iTTQ1LjIwNCAyMi45OTZWMjdIMjF2LTQuMDA0eiIgY2xhc3M9Im1zcG9ydGFsZngtc3ZnLWMxNyIgZmlsbD0iIzgwNDk5OCIgaWQ9InBhdGgyNjA0Ii8+JiN4YTsgICAgPHBhdGggZD0iTTQuNzU0IDM4SDE5YTQuNzU0IDQuNzU0IDAgMCAwIDQuNzU0LTQuNzU0VjE2Ljc1QTQuNzU0IDQuNzU0IDAgMCAwIDE5IDExLjk5Nkg0Ljc1NEE0Ljc1MyA0Ljc1MyAwIDAgMCAwIDE2Ljc1djE2LjQ5N0E0Ljc1MyA0Ljc1MyAwIDAgMCA0Ljc1NCAzOHoiIGNsYXNzPSJtc3BvcnRhbGZ4LXN2Zy1jMTQiIGZpbGw9IiM3ZmJhMDAiIGlkPSJwYXRoMjYwNiIvPiYjeGE7ICAgIDxwYXRoIG9wYWNpdHk9Ii4yIiBkPSJNNC43NTQgMzhMMTkgMTEuOTk2SDQuNzU0QTQuNzUzIDQuNzUzIDAgMCAwIDAgMTYuNzV2MTYuNDk3QTQuNzUzIDQuNzUzIDAgMCAwIDQuNzU0IDM4eiIgY2xhc3M9Im1zcG9ydGFsZngtc3ZnLWMwMSIgZmlsbD0iI2ZmZmZmZiIgaWQ9InBhdGgyNjA4Ii8+JiN4YTsgICAgPHBhdGggZD0iTTE0IDIxLjk5Nmg2djZoLTZ6TTQgMTZoNnY2SDR6bTAgMTJoNnY2SDR6IiBjbGFzcz0ibXNwb3J0YWxmeC1zdmctYzAxIiBmaWxsPSIjZmZmZmZmIiBpZD0icGF0aDI2MTAiLz4mI3hhOyAgPC9nPiYjeGE7PC9zdmc+" vertex="1" parent="zDaQmOFD6J1gRsia0iM_-22">
          <mxGeometry x="58" y="190.88" width="50" height="50" as="geometry" />
        </mxCell>
        <mxCell id="zDaQmOFD6J1gRsia0iM_-25" value="" style="swimlane;startSize=0;shadow=0;dashed=1;dashPattern=1 4;labelBackgroundColor=none;strokeColor=#09090F;strokeWidth=2;fillColor=none;gradientColor=none;opacity=80;" vertex="1" parent="zDaQmOFD6J1gRsia0iM_-22">
          <mxGeometry x="143" y="162.64" width="70" height="60" as="geometry" />
        </mxCell>
        <mxCell id="sWWN8BbJRaAaWUyCIHw_-4" value="" style="sketch=0;html=1;dashed=0;whitespace=wrap;fillColor=#2875E2;strokeColor=#ffffff;points=[[0.005,0.63,0],[0.1,0.2,0],[0.9,0.2,0],[0.5,0,0],[0.995,0.63,0],[0.72,0.99,0],[0.5,1,0],[0.28,0.99,0]];shape=mxgraph.kubernetes.icon;prIcon=ns" vertex="1" parent="zDaQmOFD6J1gRsia0iM_-25">
          <mxGeometry x="-15.00000000000001" y="-11.639999999999986" width="30" height="28" as="geometry" />
        </mxCell>
        <mxCell id="sWWN8BbJRaAaWUyCIHw_-8" value="" style="shape=image;html=1;verticalAlign=top;verticalLabelPosition=bottom;labelBackgroundColor=#ffffff;imageAspect=0;aspect=fixed;image=https://cdn0.iconfinder.com/data/icons/kameleon-free-pack-rounded/110/Student-3-128.png;fillColor=none;" vertex="1" parent="zDaQmOFD6J1gRsia0iM_-25">
          <mxGeometry x="20.819999999999936" y="15.819999999999993" width="28.36" height="28.36" as="geometry" />
        </mxCell>
        <mxCell id="zDaQmOFD6J1gRsia0iM_-28" style="edgeStyle=orthogonalEdgeStyle;rounded=0;orthogonalLoop=1;jettySize=auto;html=1;exitX=1;exitY=0.5;exitDx=0;exitDy=0;entryX=0;entryY=0.5;entryDx=0;entryDy=0;" edge="1" parent="zDaQmOFD6J1gRsia0iM_-22" source="zDaQmOFD6J1gRsia0iM_-24" target="zDaQmOFD6J1gRsia0iM_-25">
          <mxGeometry relative="1" as="geometry" />
        </mxCell>
        <mxCell id="sWWN8BbJRaAaWUyCIHw_-29" style="edgeStyle=orthogonalEdgeStyle;rounded=0;orthogonalLoop=1;jettySize=auto;html=1;entryX=0.028;entryY=0.506;entryDx=0;entryDy=0;entryPerimeter=0;fontSize=9;" edge="1" parent="zDaQmOFD6J1gRsia0iM_-22" source="zDaQmOFD6J1gRsia0iM_-29" target="sWWN8BbJRaAaWUyCIHw_-15">
          <mxGeometry relative="1" as="geometry" />
        </mxCell>
        <mxCell id="zDaQmOFD6J1gRsia0iM_-29" value="" style="swimlane;startSize=0;shadow=0;dashed=1;dashPattern=1 4;labelBackgroundColor=none;strokeColor=#09090F;strokeWidth=2;fillColor=none;gradientColor=none;opacity=80;" vertex="1" parent="zDaQmOFD6J1gRsia0iM_-22">
          <mxGeometry x="143" y="76.63999999999999" width="70" height="60" as="geometry" />
        </mxCell>
        <mxCell id="sWWN8BbJRaAaWUyCIHw_-10" value="" style="sketch=0;aspect=fixed;html=1;points=[];align=center;image;fontSize=12;image=img/lib/mscae/Client_Apps.svg;fillColor=none;" vertex="1" parent="zDaQmOFD6J1gRsia0iM_-29">
          <mxGeometry x="23" y="15.5" width="29" height="29" as="geometry" />
        </mxCell>
        <mxCell id="zDaQmOFD6J1gRsia0iM_-32" style="edgeStyle=orthogonalEdgeStyle;rounded=0;orthogonalLoop=1;jettySize=auto;html=1;exitX=0.75;exitY=0;exitDx=0;exitDy=0;entryX=0;entryY=0.5;entryDx=0;entryDy=0;" edge="1" parent="zDaQmOFD6J1gRsia0iM_-22" source="zDaQmOFD6J1gRsia0iM_-24" target="zDaQmOFD6J1gRsia0iM_-29">
          <mxGeometry relative="1" as="geometry" />
        </mxCell>
        <mxCell id="zDaQmOFD6J1gRsia0iM_-33" value="" style="swimlane;startSize=0;shadow=0;dashed=1;dashPattern=1 4;labelBackgroundColor=none;strokeColor=#09090F;strokeWidth=2;fillColor=none;gradientColor=none;opacity=80;" vertex="1" parent="zDaQmOFD6J1gRsia0iM_-22">
          <mxGeometry x="143" y="303" width="70" height="60" as="geometry" />
        </mxCell>
        <mxCell id="sWWN8BbJRaAaWUyCIHw_-6" value="" style="sketch=0;html=1;dashed=0;whitespace=wrap;fillColor=#2875E2;strokeColor=#ffffff;points=[[0.005,0.63,0],[0.1,0.2,0],[0.9,0.2,0],[0.5,0,0],[0.995,0.63,0],[0.72,0.99,0],[0.5,1,0],[0.28,0.99,0]];shape=mxgraph.kubernetes.icon;prIcon=ns" vertex="1" parent="zDaQmOFD6J1gRsia0iM_-33">
          <mxGeometry x="-13.269999999999982" y="-12" width="30" height="28" as="geometry" />
        </mxCell>
        <mxCell id="sWWN8BbJRaAaWUyCIHw_-9" value="" style="shape=image;html=1;verticalAlign=top;verticalLabelPosition=bottom;labelBackgroundColor=#ffffff;imageAspect=0;aspect=fixed;image=https://cdn0.iconfinder.com/data/icons/kameleon-free-pack-rounded/110/Student-3-128.png;fillColor=none;" vertex="1" parent="zDaQmOFD6J1gRsia0iM_-33">
          <mxGeometry x="20.819999999999936" y="16" width="28.36" height="28.36" as="geometry" />
        </mxCell>
        <mxCell id="zDaQmOFD6J1gRsia0iM_-36" style="edgeStyle=orthogonalEdgeStyle;rounded=0;orthogonalLoop=1;jettySize=auto;html=1;exitX=0.75;exitY=1;exitDx=0;exitDy=0;entryX=0;entryY=0.5;entryDx=0;entryDy=0;" edge="1" parent="zDaQmOFD6J1gRsia0iM_-22" source="zDaQmOFD6J1gRsia0iM_-24" target="zDaQmOFD6J1gRsia0iM_-33">
          <mxGeometry relative="1" as="geometry">
            <mxPoint x="145.27999999999975" y="333.44000000000005" as="targetPoint" />
          </mxGeometry>
        </mxCell>
        <mxCell id="zDaQmOFD6J1gRsia0iM_-37" value="Student&amp;nbsp;1" style="text;html=1;strokeColor=none;fillColor=none;align=center;verticalAlign=middle;whiteSpace=wrap;rounded=0;shadow=0;labelBackgroundColor=none;opacity=80;" vertex="1" parent="zDaQmOFD6J1gRsia0iM_-22">
          <mxGeometry x="183" y="223" width="60" height="30" as="geometry" />
        </mxCell>
        <mxCell id="zDaQmOFD6J1gRsia0iM_-38" value="Base apps" style="text;html=1;strokeColor=none;fillColor=none;align=center;verticalAlign=middle;whiteSpace=wrap;rounded=0;shadow=0;labelBackgroundColor=none;opacity=80;" vertex="1" parent="zDaQmOFD6J1gRsia0iM_-22">
          <mxGeometry x="183" y="132.64" width="60" height="30" as="geometry" />
        </mxCell>
        <mxCell id="zDaQmOFD6J1gRsia0iM_-39" value="" style="endArrow=none;dashed=1;html=1;dashPattern=1 3;strokeWidth=2;rounded=0;entryX=0.5;entryY=1;entryDx=0;entryDy=0;exitX=0.5;exitY=0;exitDx=0;exitDy=0;" edge="1" parent="zDaQmOFD6J1gRsia0iM_-22" source="zDaQmOFD6J1gRsia0iM_-33" target="zDaQmOFD6J1gRsia0iM_-25">
          <mxGeometry width="50" height="50" relative="1" as="geometry">
            <mxPoint x="263" y="288" as="sourcePoint" />
            <mxPoint x="313" y="238" as="targetPoint" />
          </mxGeometry>
        </mxCell>
        <mxCell id="zDaQmOFD6J1gRsia0iM_-40" value="Student&amp;nbsp;N" style="text;html=1;strokeColor=none;fillColor=none;align=center;verticalAlign=middle;whiteSpace=wrap;rounded=0;shadow=0;labelBackgroundColor=none;opacity=80;" vertex="1" parent="zDaQmOFD6J1gRsia0iM_-22">
          <mxGeometry x="183" y="363" width="60" height="30" as="geometry" />
        </mxCell>
        <mxCell id="zDaQmOFD6J1gRsia0iM_-41" value="Ingress Controller" style="text;html=1;strokeColor=none;fillColor=none;align=center;verticalAlign=middle;whiteSpace=wrap;rounded=0;shadow=0;labelBackgroundColor=none;opacity=80;" vertex="1" parent="zDaQmOFD6J1gRsia0iM_-22">
          <mxGeometry x="38" y="230" width="60" height="30" as="geometry" />
        </mxCell>
        <mxCell id="zDaQmOFD6J1gRsia0iM_-43" value="&lt;b&gt;Kubernetes Cluster&lt;/b&gt;" style="text;html=1;strokeColor=none;fillColor=none;align=center;verticalAlign=middle;whiteSpace=wrap;rounded=0;shadow=0;labelBackgroundColor=none;opacity=80;" vertex="1" parent="zDaQmOFD6J1gRsia0iM_-22">
          <mxGeometry x="58" width="100" height="30" as="geometry" />
        </mxCell>
        <mxCell id="sWWN8BbJRaAaWUyCIHw_-14" value="" style="sketch=0;html=1;dashed=0;whitespace=wrap;fillColor=#2875E2;strokeColor=#ffffff;points=[[0.005,0.63,0],[0.1,0.2,0],[0.9,0.2,0],[0.5,0,0],[0.995,0.63,0],[0.72,0.99,0],[0.5,1,0],[0.28,0.99,0]];shape=mxgraph.kubernetes.icon;prIcon=sc" vertex="1" parent="zDaQmOFD6J1gRsia0iM_-22">
          <mxGeometry x="278" y="173.88" width="44" height="37" as="geometry" />
        </mxCell>
        <mxCell id="sWWN8BbJRaAaWUyCIHw_-15" value="" style="sketch=0;html=1;dashed=0;whitespace=wrap;fillColor=#2875E2;strokeColor=#ffffff;points=[[0.005,0.63,0],[0.1,0.2,0],[0.9,0.2,0],[0.5,0,0],[0.995,0.63,0],[0.72,0.99,0],[0.5,1,0],[0.28,0.99,0]];shape=mxgraph.kubernetes.icon;prIcon=vol" vertex="1" parent="zDaQmOFD6J1gRsia0iM_-22">
          <mxGeometry x="253" y="93.64" width="33" height="26" as="geometry" />
        </mxCell>
        <mxCell id="sWWN8BbJRaAaWUyCIHw_-18" value="" style="sketch=0;html=1;dashed=0;whitespace=wrap;fillColor=#2875E2;strokeColor=#ffffff;points=[[0.005,0.63,0],[0.1,0.2,0],[0.9,0.2,0],[0.5,0,0],[0.995,0.63,0],[0.72,0.99,0],[0.5,1,0],[0.28,0.99,0]];shape=mxgraph.kubernetes.icon;prIcon=vol" vertex="1" parent="zDaQmOFD6J1gRsia0iM_-22">
          <mxGeometry x="226" y="164.88" width="33" height="26" as="geometry" />
        </mxCell>
        <mxCell id="sWWN8BbJRaAaWUyCIHw_-19" value="" style="sketch=0;html=1;dashed=0;whitespace=wrap;fillColor=#2875E2;strokeColor=#ffffff;points=[[0.005,0.63,0],[0.1,0.2,0],[0.9,0.2,0],[0.5,0,0],[0.995,0.63,0],[0.72,0.99,0],[0.5,1,0],[0.28,0.99,0]];shape=mxgraph.kubernetes.icon;prIcon=vol" vertex="1" parent="zDaQmOFD6J1gRsia0iM_-22">
          <mxGeometry x="226" y="197" width="33" height="26" as="geometry" />
        </mxCell>
        <mxCell id="sWWN8BbJRaAaWUyCIHw_-22" value="" style="sketch=0;html=1;dashed=0;whitespace=wrap;fillColor=#2875E2;strokeColor=#ffffff;points=[[0.005,0.63,0],[0.1,0.2,0],[0.9,0.2,0],[0.5,0,0],[0.995,0.63,0],[0.72,0.99,0],[0.5,1,0],[0.28,0.99,0]];shape=mxgraph.kubernetes.icon;prIcon=vol" vertex="1" parent="zDaQmOFD6J1gRsia0iM_-22">
          <mxGeometry x="220" y="311" width="33" height="26" as="geometry" />
        </mxCell>
        <mxCell id="sWWN8BbJRaAaWUyCIHw_-34" style="edgeStyle=orthogonalEdgeStyle;rounded=0;orthogonalLoop=1;jettySize=auto;html=1;exitX=0.9;exitY=0.2;exitDx=0;exitDy=0;exitPerimeter=0;entryX=0.5;entryY=1;entryDx=0;entryDy=0;fontSize=9;" edge="1" parent="zDaQmOFD6J1gRsia0iM_-22" source="sWWN8BbJRaAaWUyCIHw_-24" target="sWWN8BbJRaAaWUyCIHw_-27">
          <mxGeometry relative="1" as="geometry" />
        </mxCell>
        <mxCell id="sWWN8BbJRaAaWUyCIHw_-24" value="" style="sketch=0;html=1;dashed=0;whitespace=wrap;fillColor=#2875E2;strokeColor=#ffffff;points=[[0.005,0.63,0],[0.1,0.2,0],[0.9,0.2,0],[0.5,0,0],[0.995,0.63,0],[0.72,0.99,0],[0.5,1,0],[0.28,0.99,0]];shape=mxgraph.kubernetes.icon;prIcon=vol" vertex="1" parent="zDaQmOFD6J1gRsia0iM_-22">
          <mxGeometry x="220" y="341" width="33" height="26" as="geometry" />
        </mxCell>
        <mxCell id="sWWN8BbJRaAaWUyCIHw_-25" value="" style="sketch=0;html=1;dashed=0;whitespace=wrap;fillColor=#2875E2;strokeColor=#ffffff;points=[[0.005,0.63,0],[0.1,0.2,0],[0.9,0.2,0],[0.5,0,0],[0.995,0.63,0],[0.72,0.99,0],[0.5,1,0],[0.28,0.99,0]];shape=mxgraph.kubernetes.icon;prIcon=sc" vertex="1" parent="zDaQmOFD6J1gRsia0iM_-22">
          <mxGeometry x="280" y="253" width="44" height="37" as="geometry" />
        </mxCell>
        <mxCell id="sWWN8BbJRaAaWUyCIHw_-26" value="Disk based SC" style="text;html=1;strokeColor=none;fillColor=none;align=center;verticalAlign=middle;whiteSpace=wrap;rounded=0;shadow=0;labelBackgroundColor=none;opacity=80;fontSize=8;" vertex="1" parent="zDaQmOFD6J1gRsia0iM_-22">
          <mxGeometry x="280" y="210.88" width="40" height="29.12" as="geometry" />
        </mxCell>
        <mxCell id="sWWN8BbJRaAaWUyCIHw_-27" value="&lt;font style=&quot;font-size: 9px&quot;&gt;Blob based SC&lt;/font&gt;" style="text;html=1;strokeColor=none;fillColor=none;align=center;verticalAlign=middle;whiteSpace=wrap;rounded=0;shadow=0;labelBackgroundColor=none;opacity=80;" vertex="1" parent="zDaQmOFD6J1gRsia0iM_-22">
          <mxGeometry x="272" y="290" width="60" height="30" as="geometry" />
        </mxCell>
        <mxCell id="sWWN8BbJRaAaWUyCIHw_-31" value="" style="endArrow=classic;html=1;rounded=0;fontSize=9;entryX=0.005;entryY=0.63;entryDx=0;entryDy=0;entryPerimeter=0;exitX=0.876;exitY=0.534;exitDx=0;exitDy=0;exitPerimeter=0;" edge="1" parent="zDaQmOFD6J1gRsia0iM_-22" source="sWWN8BbJRaAaWUyCIHw_-18" target="sWWN8BbJRaAaWUyCIHw_-14">
          <mxGeometry width="50" height="50" relative="1" as="geometry">
            <mxPoint x="-104" y="381" as="sourcePoint" />
            <mxPoint x="-54" y="331" as="targetPoint" />
          </mxGeometry>
        </mxCell>
        <mxCell id="sWWN8BbJRaAaWUyCIHw_-32" value="" style="endArrow=classic;html=1;rounded=0;fontSize=9;entryX=0.005;entryY=0.63;entryDx=0;entryDy=0;entryPerimeter=0;exitX=0.995;exitY=0.63;exitDx=0;exitDy=0;exitPerimeter=0;" edge="1" parent="zDaQmOFD6J1gRsia0iM_-22" source="sWWN8BbJRaAaWUyCIHw_-19" target="sWWN8BbJRaAaWUyCIHw_-25">
          <mxGeometry width="50" height="50" relative="1" as="geometry">
            <mxPoint x="264.9079999999999" y="188.76400000000012" as="sourcePoint" />
            <mxPoint x="288.2199999999998" y="207.19000000000005" as="targetPoint" />
          </mxGeometry>
        </mxCell>
        <mxCell id="sWWN8BbJRaAaWUyCIHw_-33" value="" style="endArrow=classic;html=1;rounded=0;fontSize=9;entryX=0.005;entryY=0.63;entryDx=0;entryDy=0;entryPerimeter=0;exitX=0.9;exitY=0.2;exitDx=0;exitDy=0;exitPerimeter=0;edgeStyle=orthogonalEdgeStyle;" edge="1" parent="zDaQmOFD6J1gRsia0iM_-22" source="sWWN8BbJRaAaWUyCIHw_-22" target="sWWN8BbJRaAaWUyCIHw_-14">
          <mxGeometry width="50" height="50" relative="1" as="geometry">
            <mxPoint x="268.83500000000004" y="223.3800000000001" as="sourcePoint" />
            <mxPoint x="290.2199999999998" y="286.30999999999995" as="targetPoint" />
          </mxGeometry>
        </mxCell>
        <mxCell id="zDaQmOFD6J1gRsia0iM_-44" value="Route Table" style="text;html=1;strokeColor=none;fillColor=none;align=center;verticalAlign=middle;whiteSpace=wrap;rounded=0;shadow=0;labelBackgroundColor=none;opacity=80;" vertex="1" parent="zDaQmOFD6J1gRsia0iM_-1">
          <mxGeometry x="1090" y="120" width="90" height="30" as="geometry" />
        </mxCell>
        <mxCell id="zDaQmOFD6J1gRsia0iM_-45" value="Network Security Group" style="text;html=1;strokeColor=none;fillColor=none;align=center;verticalAlign=middle;whiteSpace=wrap;rounded=0;shadow=0;labelBackgroundColor=none;opacity=80;" vertex="1" parent="zDaQmOFD6J1gRsia0iM_-1">
          <mxGeometry x="1098.75" y="170" width="133.96" height="30" as="geometry" />
        </mxCell>
        <mxCell id="zDaQmOFD6J1gRsia0iM_-50" style="edgeStyle=orthogonalEdgeStyle;rounded=0;orthogonalLoop=1;jettySize=auto;html=1;entryX=0.5;entryY=1;entryDx=0;entryDy=0;strokeColor=#99CCFF;" edge="1" parent="zDaQmOFD6J1gRsia0iM_-1" source="vz9ZmMo7kBPxiAjC7SVR-0" target="zDaQmOFD6J1gRsia0iM_-23">
          <mxGeometry relative="1" as="geometry">
            <Array as="points">
              <mxPoint x="1534" y="520" />
              <mxPoint x="1413" y="520" />
            </Array>
            <mxPoint x="1534" y="768" as="sourcePoint" />
          </mxGeometry>
        </mxCell>
        <mxCell id="zDaQmOFD6J1gRsia0iM_-52" style="edgeStyle=orthogonalEdgeStyle;rounded=0;orthogonalLoop=1;jettySize=auto;html=1;strokeColor=#99CCFF;" edge="1" parent="zDaQmOFD6J1gRsia0iM_-1" target="zDaQmOFD6J1gRsia0iM_-16">
          <mxGeometry relative="1" as="geometry">
            <mxPoint x="1413" y="501" as="sourcePoint" />
            <mxPoint x="1290" y="541" as="targetPoint" />
            <Array as="points">
              <mxPoint x="1413" y="520" />
              <mxPoint x="1290" y="520" />
            </Array>
          </mxGeometry>
        </mxCell>
        <mxCell id="zDaQmOFD6J1gRsia0iM_-56" value="" style="aspect=fixed;html=1;points=[];align=center;image;fontSize=12;image=img/lib/azure2/general/Resource_Groups.svg;shadow=0;labelBackgroundColor=none;strokeColor=#09090F;strokeWidth=1;fillColor=none;gradientColor=none;opacity=80;" vertex="1" parent="zDaQmOFD6J1gRsia0iM_-1">
          <mxGeometry x="730" y="-64" width="68" height="64" as="geometry" />
        </mxCell>
        <mxCell id="zDaQmOFD6J1gRsia0iM_-60" value="&lt;b&gt;&lt;font style=&quot;font-size: 14px&quot;&gt;Virtual Network&lt;/font&gt;&lt;/b&gt;" style="text;html=1;strokeColor=none;fillColor=none;align=center;verticalAlign=middle;whiteSpace=wrap;rounded=0;shadow=0;labelBackgroundColor=none;opacity=80;" vertex="1" parent="zDaQmOFD6J1gRsia0iM_-1">
          <mxGeometry x="880" y="30" width="110" height="30" as="geometry" />
        </mxCell>
        <mxCell id="zDaQmOFD6J1gRsia0iM_-61" value="&lt;b&gt;&lt;font style=&quot;font-size: 14px&quot;&gt;Group/Account&lt;/font&gt;&lt;/b&gt;" style="text;html=1;strokeColor=none;fillColor=none;align=center;verticalAlign=middle;whiteSpace=wrap;rounded=0;shadow=0;labelBackgroundColor=none;opacity=80;" vertex="1" parent="zDaQmOFD6J1gRsia0iM_-1">
          <mxGeometry x="798" y="-70" width="112" height="30" as="geometry" />
        </mxCell>
        <mxCell id="zDaQmOFD6J1gRsia0iM_-62" value="&lt;b&gt;Cloud Provider&lt;/b&gt;" style="text;html=1;strokeColor=none;fillColor=none;align=center;verticalAlign=middle;whiteSpace=wrap;rounded=0;shadow=0;labelBackgroundColor=none;opacity=80;" vertex="1" parent="zDaQmOFD6J1gRsia0iM_-1">
          <mxGeometry x="660" y="-160" width="112" height="30" as="geometry" />
        </mxCell>
        <mxCell id="zDaQmOFD6J1gRsia0iM_-64" style="edgeStyle=orthogonalEdgeStyle;rounded=0;orthogonalLoop=1;jettySize=auto;html=1;entryX=0;entryY=0.5;entryDx=0;entryDy=0;fontSize=14;strokeColor=#B3B3B3;strokeWidth=1;exitX=1;exitY=0.5;exitDx=0;exitDy=0;" edge="1" parent="zDaQmOFD6J1gRsia0iM_-1" source="sWWN8BbJRaAaWUyCIHw_-12" target="zDaQmOFD6J1gRsia0iM_-8">
          <mxGeometry relative="1" as="geometry">
            <mxPoint x="550" y="310.0526315789475" as="sourcePoint" />
          </mxGeometry>
        </mxCell>
        <mxCell id="zDaQmOFD6J1gRsia0iM_-68" value="" style="ellipse;shape=cloud;whiteSpace=wrap;html=1;fillColor=none;" vertex="1" parent="zDaQmOFD6J1gRsia0iM_-1">
          <mxGeometry x="550" y="-160" width="120" height="80" as="geometry" />
        </mxCell>
        <mxCell id="zDaQmOFD6J1gRsia0iM_-69" value="Internet" style="outlineConnect=0;dashed=0;verticalLabelPosition=bottom;verticalAlign=top;align=center;html=1;shape=mxgraph.aws3.internet;fillColor=#D2D3D3;gradientColor=none;" vertex="1" parent="zDaQmOFD6J1gRsia0iM_-1">
          <mxGeometry x="460" y="268" width="79.5" height="79.5" as="geometry" />
        </mxCell>
        <mxCell id="sWWN8BbJRaAaWUyCIHw_-0" value="" style="shape=image;verticalLabelPosition=bottom;labelBackgroundColor=#ffffff;verticalAlign=top;aspect=fixed;imageAspect=0;image=data:image/png,iVBORw0KGgoAAAANSUhEUgAAAOEAAADhCAMAAAAJbSJIAAAAmVBMVEX////7+/sybOX+/v78/Pz9/f0ya+Aya+L///wxa+UsaeUmZuQfY+RTgukqaORfiukaYeT2+f7k6/vX4fnP2/g4ceYcYd7f5/rv8/2Oqu+yxfTo7vyGpO6XsfDK1/fx9f26y/Wqv/Nqket2mexKfOh+nu1zl+xZhemetvHC0fZGeeexxPNnjuqdtfGnu/KSrfA6cOAIXOMAVd05oiX/AAAgAElEQVR4nM1daWPyKtOOa0JATIxGrbt1qdpa+/7/H/eyhySQEGvv8/jhPh47hLlgGGaDeF2PfbqtHv/SanXYfzutFv+h1yqSdAWJC22JpCNJXkxbweZvAHp1tK9huvebsW3e8qleXjwrDWg7vwHo1dEaALrP9otmsOXYy2uY/g9ElJH8TyqZ3wHsFgD+szX4r0Q0T/vPmO7Iv3hB4AzwFWP7r9agF7RG2+/TcDB8n28XdYNRnsHn2fxHa9CbfQwQgjgMfQwRPt83Qfdvt4nChvjXa3Az91HYJh+/75N/QYj85czyONMM/mI3e57pBjO4WEYYtDOA7Av+OY4quzYBdO46o31iaJqK6HQJscKlf8HoOA0CB4C/sij/ECDvZXqE0M9wAfLJkEL4ntQD/NVu1n2G6Qa00xOCauIATjHwAUYZZB+j/VR77istGUX7Z2sw8JL9D1bzFaLBR7Ihf5mNvwYI05/6ffIP/tkncof8rwA+1UsQjD8pDgEwjM4XyT2BMz5FFDufSZx+jl8A0Eb7VwDXQzZPHGAYDdbdvCWTfEZcvdKpxGi4fuE2kaf9mzW4HkTZ9ofReewFRc0YJJ8IKlkNo8O6ZM29xqJsMDTOAC9nvr0zgESXEHwGWjKPJzLPfSGrIB1cxHP/K4CuvWwHabY7wGifVNAmewQULZHl7atFlFulLwV4uyKpQcheELG9oGq9kvWI1Q4Zous2k9VfmGoarQvT5pYmsYtvkyiUYudjfJpWP7fD90xi86g9M528xc+NrZXNV81g14t3V6If+2oPWE5rOJKPmx7TzG4F6LqLSaPXzODrAPaC+P6ga4oDBBAtR9bBKPuO06MmqwA97rH3DEAj7WtENIi/QqYzGEAA4XJRNFNqDOjFUbPv/BR/xY4Aa9l8CcDZCkMg9zYA/flMbn8NYjKLpQ81WQ1XM7LJvGK7trRsIKKLb8kaAchZ6z4RVesEizmEmaxC8L2oHVsHNn8NcLb0hZogAAFCXxsX0be4S7NvXVZxyAIBfwLQWUQXxx/p3rb7Ppp8dJ6Mi0qSeNVHmUBAGggIah9XxWbt0FQCnObVw2MXe80Alo3tXrD5mGRKmQUCbI9zYrOupX3Iicn1DolHKwACge93M8i7jncTZRgRWeWBgOdX0nNDE3hT4v4B6eMBNNk2jd9U+YPd20TKKhlAiD4TJauNV9JTwk3c233E3T/uvh9ugaR9YgbLxjYZwbcDdVCEhOBIOMlPqIpn5j5YfzJ8XK9Tl6D1WoCMtrc9RFkMC0TUSX5G2T8B8HJOseiXua6XjpSgFydfepeD5kiHiDhXQWOAnoUR+9xfDmkoB5ZousFaKCzvJUomTxt4axq0UsGs9Lp1ZfNZgJ2c5PDwimdQ/RUBqgJJrcO7/kRAk9Urda6eB1gz9523QQTU9gei/VgncQE4uy1XTVW/N9ZXPXOuxDA5GebOAAnJ2xWFavsD0WfiOowKYNJHmPhVDaNqPPCq77z3njPAlpGRMtPdIN61I6BWBIbcfW82g13MVvDPtrS31SqO6buW/AAIrjbuY+vQSyfY3NkOLAASSyopPNxFyQSXiA/PWS3GBgY0TYBosopXC7VD/RqgF39xC4M/HEfHabYQ3HphJMGds+g/CiROqj/wRksElay2sT9fOHVdL6Ib6d7ShwOIjguZEmsGsOUxhOQpE0H7hKcGNU+NsuLgqdUB3MxTzfOGYD5TUaJGIkppt4g/5fAkQLLZzOZtqEVL0EerNlpS08vsoIV3EfieVbtA1Rs9WYdUDsLzswCpaTFbtZEK6PnpcPE7gNNHtr9DtJp5VeJca8mMI57H2D8NkJFsPnCqxApOzPurelwebpHpKVYA08lX18hIA1NtGjE1gZdPhYM0w6j1kan2ECaVXRd6yQOcAT/bZGMzI01s0VnEHgdX3q8AUpJ4d0XCvAJ4YfUdO2LHt/TSGwiAcLLbGHppCrDT4vsh2j3jIRRp49sjFfvG+UmA3pwrGRAdixHoJ9Yg2xAFwu0rki9EVr8jvkunc3PXXhFggelEAES3wMZIU3dpwjhK180Bmsf2wuIoPkBJRdd2S2aP5Yg7RMrc/MEBUw9R0higbR7GPNSHhxVd23oJpkKkPooAnxJRTvIZ0iGPRr8AWKC9cUGLxoF1tm1MB3NmRIbDCoCNPfojG/KfTUOAFWMbcEnDJ6ug2Vq2AsA2VTT1LC2fCVnMIZWpn9cBbHUWiG/XG8vjOuafScspa0nNj9cB9O6YOSevElFGe4R0baOLjU1ryxtiQ7OtH0Z3gN4FMcF/JUBiCjLjbWlhs2tl+sTrmWa2oXliBjsj6ly08TF5YrystJsJs+YHdjbNLTtXutMwL+CXADPaYP7DbRAc1w1Gk8j2nobiQHthB2jsZRRSbxrOLb08MYNe4C1lyCwWjX4tovSxK6b00biUMBZsWlpemKODtm7DWAtwdLkfz1flSE8G+++3cez8uKqugzXTifDDFnio0usgHP1SRL0giMcfQxghjEMVCmkDgGGaRtfllqzz3yVAW8GiTR8M9gUSxaal5ZC6FeDxW4Cby/ERwTCLH6kvrKYBI3T+ckmAVorzgdqC/iRuBDBmfhPZDe3O8UJKhR3g+DiJINBx5QDyXzA83+LfAPSOrFQ1mprYtNW1BeNIOHKWGdyFKD2PKgF2tte0XKFfBMiTSrT8xnaQRnOXLMKzZQlj9GYWNPPQiMhmlBQr6UXL+w/hFYdjO0CWqDZW6JcA0kUE0/dpJcDpcni6mAF6o6jPYyMmgD3z3LP9nri+XTPAGU9fALi2AXx7aCmcCoAyZEbLhJcLu4jeEPRBtDQC9AIW7wdXy25mFm6m9/yBpw9jRntBIkKC1kaTPhkgg26pAkj/AsOvwBLe+OAxmWhr1G/BJ0uHRJtunk1BawQ4ipgOWBlnkAi+iqEW7VZKGy9/QgMuq4iqv4D0Mc4/TnC3jET56cCcXeJrKr2YZtAz17Xx4DS318sAg6mKggO6vnWAXW/9gAZcdAdEqvSNGG5hCSB73Lybn0H67xEJEtAulx3Qrple7KsJKSokA0BqXlFffJb1kvcdl5FkjUHUki/eXMtRqdJfGMHz8v7WloVAeL484wjh8k6CDqOCiHb2EmA7PJvDhjGkZa3ciHYDSPZQon/BoWcGSGjfVS4R6FtKsDmjAtOA7AXne0IbE1tXiCiite3T2578raiQQrjNJbbic1Z19XOxbClnTEvE2rEzQK4r8bHCktmFWPab3iVJkExgASDEQ2KZ8WRVAuUaRCJH2lsfH2moA6Rr+1sDuLmqCmmAvmx75hzT58LEZHCZAHrjlAnMrspUm7LZYvoCfQiAl6IBg9rfU0+tqzWSSgbu5DwFm7czrSjRRwWdOpL7UQYQ920zSFUfG7ebVwbYMgH0PpiXg5JKk554exwP0dM72l1wQ3mAKb7nitLfUqlF8Zf+uPEwKizGYcy7nk4kQBDtN1aAwYiHo94Do9407KCfbL+fbGrqZMYTIXZkX5xfgl2UA4jxV8/TAYqBY2pvnn/ceJDm7Dt4YHBGQFZG4PCtwgzudg/MvRg4AuxuHpQ+HAbVAIkWOImNEWCcfkKNRQL6fSFp5UgvoZRrusS1x/UCb+fnVjAexMnn4iEAgmhYk3x5x+x4hzGXaDAReJgNrupr1YIbr66gUxnqAKG2aKTqD05Y0rIQXv5xs1OU2UHEiDsA2A7lOZN7pya7tENsAV9MbBpMhDeGUGYXKl1wb3TQql0lQIA+N+XkizcM+Qy2WRa49Lhb6iuA1EQg6l+UCE3NG718rkfVNO0afhvZLLdk4RQfzOpmUNiMICwChPds0WSM9AZAACRbbfbcTCCmB6gAtuVgYMp2ra8ds201HLoBZD5zX5SEOHj0i2thzwZrowEdP4C0RcGka3B4vXiP2gWBiIaJYTDKwYQzUzUwLtMaWm4i2gs85h5REUTZRnmAk6nZQ5i1syNDMMOVoyXmYA4g8c+c4jci4EYc2hKtoeWF9cJMareYzB5rAMF1Y3GBFigztqPY8rgVzkk8WjnmXnm5lbIkdFVRbrmCdBhp2MMx6JTkFf1RcZ+PsyRRtq1HlgiIFx/0jREcFqazmQa/fMP8PXAy0ZZanv0+T5+4RtXOeasLXscmgN5Fq8zhSdKyR3+5Yg1gG63rlYxgk8Xo/dAFoMcYwZ/Ogd9dVHCBQjQ3APR2aUYSGWu2u8eCGR4OSseHbcG/JdsvokWZttQyYYzAD5MVawI4QyAPkI490TYWZSAsz63hces+zj2FmrZ3txlkRq/lucWWwY5rpXV9KJr38o5LAGlA4l6kDZaaQiJ+S/FxMXHliwCJ97VxA+hN02Ixkpqz/P8J2wrgWc8NYBIZYzIAsYIznfaUnc9vE5ugIKKXR16Lii8sL+gAsCOM6UE5n18A2KJLliA8uyZfPrEJIDNG3vLnB3WFBOf5LSV+z85H554C8NQtj8ET+qC/KEDqlJimoYa2j5eOAMcok8xCBBhEp5nGCM9Iyi3lPcfIBcO85ZfFeuCxNCtmv/yL7VnpuEhbanlhYTYRJazfbfcqmIE/11mhLfv08USL1vWwFkP1h9oMbo4IFEKnh6xkHo6Ks2IOPIyZSocfBtr83M8hW+Aux8zJZ4oU0zjxxlCPs7EDpcuepI11R54X0XKAlwksOCfRO8998efO813bAg+LNh1BfLIDFA2GdPTANXYCSNwQxQiV60Q55dKAhg9pKk41k8YHE/m4+KSdcBcAj3LP4jrLfOa5ZI8MqH/BOK8EuGlTOoOHauwlzswUyNZc0vdzAOlq/BK7nWbSENkTk7Ftw6J7ib7p6smMXXRzAihGm9iDBdpCS248wrtbAvSmRlqopmDqhzmA5As6M5HfpjkYPeouzWjctTiDX4z7JJK/0DILB4ABK/QgHkMxI1gQblbTQyO2LiZ9cFZG1o+4ZM4bTXC7kHzBcEejNHmLk94rxCYw7/CCn53gfqiSH3Aa1KxB2nVXBF+WxYxg4f9OTB1GBk+ynIntjrBUnnyBM8Uxu+Ji8gWg822JdIBt8LiM9xEoASROm6yVUPsQXFnSmDlB64iE2aEIqTArfbbfH5xM+uCG1Fq5eMo6IRBL2SU/zc0g/QVpd0XJvwB4UUzHV6VOzw4Ae7xctN+P8vn8Xn7uuyPuSM5rQlvi4XtphzENpryJzUGGDY1mSu5LHiDxlrJ19Q3lYIgtsa5WYkc3Oupx5djMt5Srdet0O+VmIrc/qme0sGE8gLkZdAWYq7oPEumLcG1atQY5m0lELT/4VSTJzT0Ps0WLXEsLQGFFCM2UDzoNYXOA4WSaX1dXmTWgNp5DtUuXaclwWAWQPbR88spS7vEFpRU52RTvkxnCpgDxY1Rgei5TrWDSqxVR+suQGd+hJcvNft6wynBhFteWcu2lWxF+BgWAXm+fNgMIJ7Mi02vUFg5HtAjqRJSuDr5yYZJ3/HJDs+bB8bsTwO5EqfN7qZq/23tHjQAO4hLTnUh6VEoxVIaOPB5wS28FEr3lFw92VNX2Z73MlKEpXZY87RGVcAEIU5zd9KIBHJYBEktTNG6LFH1dbGxB92cpgkaAxJ2lqn+ycZhB3dCMzEXWy0JaECD/eL/dl5OSqYY+u6a8z1zuOqIsry741zuwfP7BBFBE/9kmG1YdXsh6CTSj1EI7143tNsa3Hq/tItZazpJBe/O64hYFPUz5MA9ykc13ls8PF8UsdyGaA79dZrAnd2QC8NMyGHISxEqbqS0lHupRNZpAMK4rXl3H4tMOM+hRT4AOHLroJHpL4Sqgiz1ukAFssawkj4fNLbTBRjubTMyeLFnaOmi3QRgzRvRxs0iuV7IOXA6LcyOBTFFG29M54uY/CEf1tzTTlsyxYEbpzkYbZ/H+nySXapsq54iGZi1Mx6o8JZq6hG+7sc8Cbp85o1MbmhZL8IGH9SBXDiC3DmQYtiyi3cDrLNUFpsT5yFc6HVWYlcyhpfSye5XxGzR2C9+yJCzo5/I+GdOdDT9Ekg+DWQF6bRk7o9mFknMczLbvMKv/QuuCjzfOFC0+32ZGpjsDtSFe3K5/W7EexdGxXi7LTVte+CGSmxtAT8XOonKZ/Gi3D7Vb9Igozrp5yYi14CNAeH9beKU7zL2ziu7baksLbAqTZZcjyVrmBqAWoKc81GKhbfIx8FOciyyCR/GQZpzLHAOMwuGteFC1O5QxhPSS58Gm7GNa2svF0ACQqg6a+KoBqFqqU9CpvEKCLr3x3I9guTr4oQ6RiC7zicI284mj89uMrRfRtUDo26osDGyyHR0AM0CPlXuEQ2PL8m0kPBxA1blEGMwurHTdZIvyDIvma29CUCChGwdCnzftor1MXV/cAIpDKz8L9SaGrgYwYWsfrtxmsBtMpH2JmFk6uu3bSF96uS/M89YzUeOoDJCKM0gBB0m67hzk46LKfL624d2kC5/VP2QtbzwDd3Gawa5I4bCU/8Ub3Qe4sPTyX1ioSvfUjthCS18rEJ5vtCCnO1Hq2in4R2wMHoaRcXK+Q6mWJ7Z60MZBybCWbJHQ/Sr8vP4Yll7+y0++DnAU2QCymcRpNLzNYulit6ORQz6f2RgP5sMPTACDB69+69gPXOWvejhi6SGEoD5kQaw27T6Z7iCsoOVVZAh+qhxBFLsBZKcKaaONYlPt+AEPfuKj/c7Qwl0WO5gP/FYCpPt6VmTF4jjWGVSPyxJQqVvwj3w+mIuLxopNVdcWXPgavbm8joGQrN8rqu6Ns4IBsyVorNt3Apj9RaSqXNzWMcuG0SSbshJFSxb3IYM19cwttW2CSFvsfUcNAVIPuE084N1yYih2rwTo9x9vNa+mUWzOHkUzWM0KUxz+NbYB5NZxPEq2q+NwcFBGcZPAL4A4NVXom2hzfwERLcR3eDVNj+dSyKovAOyJ8C74zLfMfMdgetktP68TP0UQhgDUAgQgxBhF5dxEnpaAFi/1qHwcOHzdt+ONtkwsguYtuSyqzLGa+4TX632YW3ZXURQhHBJzuTDSBqb9EMIItifn48c2WR+KCdDcF/y5ej9MQpRiDID+3JIuhmmKftB5uVsv4ip75FI4hK6E+840YzHoL1p2TqhgRZoAsnMxEeoPPpcfl2QhXvewiKoAspMH8XRN5QNH9C4vKy2byhCjNAKD42qdBYnzqmLEtJjIZ+plX++Qxc9nJoDyorUcwFxMkIww+oGH03y3Hs1i0VoshKhimUpPjg5GPEvevk9XIivsalt7I4oTRoOpxWVk+Xx2ej0H0Juwer2refXqESUuiBCdcbbRg8PqNl5QRIF015ULNK4KfrOj1Bktbdydbj9OV4xQaAMovjziPJsSyYnVCyOVzxc/l08p6qt3rtfhk/nCh9UinpxVhg8MrAV2wXtxdPQvzJMxBAgCbzrOksAA+A9Uzp7vjADFdSeRCjyon2kzMqRG4d4qKxLAaPJ+Y4oq1lLz3HUoVxt63ZlfYY+z2KbFzu9dpRtGROX/xm9DMqs5Bc6WmmG7TngO9B7k9gtxFoIauAaAxF2lXh9xxH8Oq7EswyfcZ1nuvRmgnic2TiW623L0Wpb7HlM7ZHE/R/JkMUVKS9wNXl2rx/P5x0AH2BL75MQW0Zqd0xS2T2/a8XkV2uIO3MgkoroTKxdwsYK0mFSSW/AwlIscy70tmN2GIbUYeAzV5FHRsR3oB2A7kpEJr9crp3jU3K+TcuXOReVI8dEMMMmf1sOn3TB/vC0tvLRLdp3VTIOzpx5Hxnq779OZBNHR6LZ2RD7fv4rHSY6Y8vc/zTMoXOUSQK+ThSyQiiPn4qLznI3NTgMNcwWpPGBeNqI+1c5YukFmdnmfwMeHV64X4V2/02IQ0M6ey1qy453+2TKD1sP/c5Xq5UeZirS9MF9ATB2oBOqqH/hqenSkiUrq+KhX6Jpw1417djZPLD8zyQOkIQmCe2KbQVsUfJSqnVkkEfMFdlQJZ3BSpt+1Yji2nC6GGeyc1SuE4Le5azubvBT/kAdIqyhpiic26d+K6xu03Y4fwy0cUj6H2nwJL6+3yZmAxNEp2/kir0ZJ4KIaYJlN/ti9pBU/85Mcej2L2yXGSbYZ0B24QDvK5UgjcUrB+0BqBqlez87Ryy+zvhoDLv0NZlCW4n/JgRM/r/nP714jgF2uuIS7ROsJ8nvbt16Rwc8ZUY56E91dkmkE7TKivaqgolXQzQDKrf0it3beshtDfjQqK2B3A+hNUXlvkwDjh/5ux/ZMcXRBIPMHS/ot2EVKitmwNAHY3XCjAEnJUC2PbJuS9d0OSkb2cszmSbaWtPopGZ5llM8dqkPq1Pya5gEmWeAVQNOlt1W6UHgJeC89D9VSFDjBcaMZ9GgNjuYq3HRaUegobOyDzpF0OLj5lavT6m6uWX4YfTVTMkQx8FIPuYnqt7dwtZcvxHB6l4cmU4BG35WHsNCPL1NPUCtCeNcOU4JrL5vBbmeYOTLhteEMdmMxPINuRitbrnlROj43mkHayzAL0ANa7SoGI/jQ6xTe80UIM6TFbyItw8vKcOTj0LjZDLa8Pa8ZTLXD4lrxLFdg0XfTG2LpRSBK2zxGcrZF6kZ4SbOC3bpCmbMHl8pd9751gPNmM9jyvnj1hj+ZZbSZ/Mci3yVF2P3qv1u27fXBQ9yUnssuoXvRMI8n2RkLP5XPDVZao/Dac80wCIA8qt3v/yQardYyEZFaftiiyd2GJ5xpxjCcclrtnBO7WKbgeWwzg8+PtnyQtUtTaAB55PBWMh0gO+9DZjB6y9FqLfmpdjJ2cTOAvfigjtrzy5XoStNyiaYLVLtZGTwPZvSC1klPKkZb5xQKB8i5kLdEmgCqvQ3uGwHsqtGTgbd7wIZL8kpNz5LvqEsxwAsCcHHWw0FEHzSbQY/pZwLw3LMC9HoDoW1W9TU1+XU1Rlrg10+HG2+QBZLgzBiOzww+uk6DbaifmIanpgDvrILKB+wigXxdmxY2nEltc2kGkPpJeogTtleZn4vu5itwF5rBd54df/SQFTy3iheN1fgEa3a5gw9YYi1f15Zjes21DWiPHAGqXm65uCiAGfeDev/Z709yQUd8iK1ZPrNFuZjw+wxY+W+etuAqf/GBxYeGAFvF21vUF3nBRsE5Jp+NnhLQG9HbW5rNoDfgGWlqWdgAqpAxP1EIdce0TkQ509uofOa5qoqsE+zyB2kyEW02gx4vSKYTM+iUaEtD0xJH4tG9vpfCrFyw4aI933bhLB3bgWnao32r6QzeOECqk0tsloZG3sbm43WDYeRfkkfpvHl/cstdUK7NYMAONBQBgmjetSoZS9fU32Lm/cVEWx6aLb9hJGzXvCKztK46wexcCnEDhA+rtXoJlXxDqReM3vZtXAIYlo/X1QKk2V3pa7kA9Kj1y07VHRoCpCTz8gUEAMA0Ohzv22S2mW02m9l0ffseihvpCrTwOm0M0COWAvNfTq4AadCWXxy3LCdqar3/9cR4XIZlTyNM10oUISQyvsVEDVrGzQHO+aUp1Ng0zIMRIFHj3GZEN2vhqt2si5fljCH/L1MGwFb6Ri+bWHulFxHVdr3lAEFUPFXEvxgBqliAPN7uJKLKDfPm2AKwumgj/G64BbMvibiYMLrY2DTrX3YbVt8PaVCjGcBWrzMBzwAEk7ihR8/8zAcHaL+rx9ZyybUNNB4VqPY8RgOjINaW3fw016Ke98lXPbttxkxrZVpUkdNIQjOAbGWwuJT2stkKgDJ9hU+jhsa2R4MhXF23YyubXXNLz5OR9ehmva/QYtZNWbExAOF2OUmz96SZAYYQD6SFXn9JezH4txUAUdWVbrZZCcbiJkuc5FvWhhgP/FqGyZzeWP4+iWja1wiQ3Vi+Srwle0dlP11aAFpncCoK/tHbEwCpS8m99JDddu4eBb+zBDxexlxwNuPVEKYpL+4STgStCEvRz/X4xuqKFrslv3Q8cZ5B9qUnikHovm2j7VQy/c5zmfCzgYh6MxEB3uq0yfZ7fw0hJNs+JP/iCa3e2mTTc2HX09AEXRMzWATA4FnZggY2q2dFjtG3w2sS87Ee0NarqUX/8WiaJMl0tOkpK1U8d8MDb2RPcxdR70O8kKq9qQDYqgTojbhjCmRQwyFAlaR9UblQdpdktMZwZyIPR4eHDFftDK75DILsTJRFVVQmQC/CVcCjYkubXhfvasteqOHkSMvKudIZXjvAmdBZ0a7mva01TH8IbfPoeC4iKt8wRW+kMji8NoAtL77yYC5/h0P9NuGJwxC0MqjG4Cr+XGR6L7TNyQmgjLyUy8XrDkh+83tq0MpzWoM830kvq81ILKqiBqDK46KP0pl7Q5mmKGIEaXEMak+AiquwAdq4iKi345k7gBedWto6poWbAbSQmWejldfRy2Rwk2CWsBLh0cFK9MbilHe0LhpcZXGuAUj8K34biLqHuCpZKg4w++kTL3yW8VaU1DMtCh5ptMz2ONV1LcAe86FZ3cegDuBaZIPFXWVNAHa6sWy8l7TWGezyBEcbvtcORsVbyfSW4mp7WhdROdufwvPllb9eE4CE9p1n4/rIcvOnog3EfUXhtWUHqBsb9W71RtzgRV8S4FXQ8muM+oCp/EYzSGnXotAxf1WiAaAomPJlVWadRekQNwjGwgeSF2BYaEUhEKtEawyQXjvIRKXmdcFBgvLZI8vjPPcZpPLHw+9kKjdVtKuIB0hnzwCkKRNu8C2rAHZjUR6Qrkpsmnczx7jBkW/INKhhp+0NUh/gnzev0TahSGY+j3mPizd/5txWrq99cVWFg9taC1A8/MCKF6krVjUY98PkM3luBr1esGbu1d0UWZGPC+Zi75p0zI8rj60jQG8h7bG3qtsNCo9r+pK90fdpPq164bO4qou4AtWvh9K6rgOYlfzxV9QROylxZvqptwhWiuhIHHwTFTEugYcagPrQfIhDFzbz38EwdwBYxXSvN+GV/9Uvcc4/1x2g55145pqt8b+awerNe6w/K+8AAAM1SURBVM/r/PHQHWC3SS/dK64JL/8aYHVJ3Zc42jDJXxBdE/xrMoxTcUIgutR5nX8goi1ZReHDOrMu/1xXEaUthSYju63NXvo7EW15C3GHL39NmPvYNgBISFZcTvgtvP9WRHsHfoQfLevZzD/Xwohl7sWBFxrU+LczKN7dLHw49/h0U4CsaNJcTun9cg3W1O2K9xPwmi73DIMVoJ3pRBRaRuZXH/IvL5pBrWvhWgFofG9m1dg26YXRBjfhi4ugxj9Zg6yUs1Tw7yY8dQANHC25tgn5yViHlf77NeidxfJ/d2cze25z82sgujv+M4BLWdrbhM3nAXozca1ndP83WpRqGZZubC+q2TR33VBE2WcstA0aN41sGx9Xd/ohEe9tpdcfNdGigvYJgN3gLmwbX90/VtPLb2Yw9oE6P9N4DapPU+F+F0Y+u2n7b0XUG2aZk6e24KcAEhOKaxtqQv2tiHpz5MuaruZrsATQfe5H8qjI299qUe+GxKGb6XMi2rL14tW1vPA0A1B3Nv6FqcbqjvlIbp9jk/3lOfsy+BLaJvoQtK831WgEVhStrZ4TUUb75NB0eEiBJjXP1FZ89RqkJOuBuDkCDo20Tmw+KdyUJJaveQjR8CYvi/HUf12+VJDEye6MxElwfI07T7PZoIykNCuLBxCVTvRGwcPwVZ8J+dCCW3noJpwsysem3Nn8hY/nLa7qGAgAICQfn/0bhsDn/8W+j+UX+YsgCcUPhBbnaWkpF8gKOOFj5PjKJwub4uemc88CtJuz7frDQsVlk1ddFO7WQueZKUjsPg9PA+S9rCLbW8n4l98CxD/flVHw+nkwMO06g5xkNMTYVJT+ihkEEA1HmRZ9js3fAqTFGvMrvZ4r5CsNkP+C/Bcg1iD5opYpKNGGRdo0OswTq/B4Dbbg59ag3gvR7PPTcCA+54Htcz4XSapod9NmVZ8uAJ1nsEzrySOZPXmrtTocI7+owj1F4kD7tD2S0T7T0qSri4xktxJ1a2lLj7O/beoJNl8E8IXGdsPgX23Xz24TDQejaUDvedoSm88z/Tf+4MvH9h8DfEpEf9f1v+nln4uoxuazTJs049+K6LNj+/+H63Z/Z0bWVQAAAABJRU5ErkJggg==;" vertex="1" parent="zDaQmOFD6J1gRsia0iM_-1">
          <mxGeometry x="1260" y="85" width="65" height="65" as="geometry" />
        </mxCell>
        <mxCell id="sWWN8BbJRaAaWUyCIHw_-5" value="" style="sketch=0;html=1;dashed=0;whitespace=wrap;fillColor=#2875E2;strokeColor=#ffffff;points=[[0.005,0.63,0],[0.1,0.2,0],[0.9,0.2,0],[0.5,0,0],[0.995,0.63,0],[0.72,0.99,0],[0.5,1,0],[0.28,0.99,0]];shape=mxgraph.kubernetes.icon;prIcon=ns" vertex="1" parent="zDaQmOFD6J1gRsia0iM_-1">
          <mxGeometry x="1393.73" y="160" width="30" height="28" as="geometry" />
        </mxCell>
        <mxCell id="sWWN8BbJRaAaWUyCIHw_-11" value="Landing Zone&lt;br&gt;- Cloud Provider&lt;br&gt;- Network setup - CNI v/s Kubernetes and Subnetting and Security&lt;br&gt;Nodes Pool - Fixed and Spot instances&lt;br&gt;Layer 7 LB - ALB/App gateway - WAF enabled&lt;br&gt;DNS - External Provider based&lt;br&gt;Ingress - Nginx/Traefik on Kubernetes&lt;br&gt;Cert manager - SSL certificates&lt;br&gt;Storage Class - Cloud provider based + Blob based&lt;br&gt;Container registry&lt;br&gt;" style="rounded=1;whiteSpace=wrap;html=1;fillColor=none;" vertex="1" parent="zDaQmOFD6J1gRsia0iM_-1">
          <mxGeometry x="1060" y="-390" width="390" height="170" as="geometry" />
        </mxCell>
        <mxCell id="sWWN8BbJRaAaWUyCIHw_-13" style="edgeStyle=orthogonalEdgeStyle;rounded=0;orthogonalLoop=1;jettySize=auto;html=1;entryX=1;entryY=0.47;entryDx=0;entryDy=0;entryPerimeter=0;" edge="1" parent="zDaQmOFD6J1gRsia0iM_-1" source="sWWN8BbJRaAaWUyCIHw_-12" target="zDaQmOFD6J1gRsia0iM_-69">
          <mxGeometry relative="1" as="geometry" />
        </mxCell>
        <mxCell id="sWWN8BbJRaAaWUyCIHw_-12" value="Layer 7 LB" style="shape=image;verticalLabelPosition=bottom;verticalAlign=top;imageAspect=0;aspect=fixed;image=data:image/svg+xml,PHN2ZyB4bWxuczpkYz0iaHR0cDovL3B1cmwub3JnL2RjL2VsZW1lbnRzLzEuMS8iIHhtbG5zOmNjPSJodHRwOi8vY3JlYXRpdmVjb21tb25zLm9yZy9ucyMiIHhtbG5zOnJkZj0iaHR0cDovL3d3dy53My5vcmcvMTk5OS8wMi8yMi1yZGYtc3ludGF4LW5zIyIgeG1sbnM6c3ZnPSJodHRwOi8vd3d3LnczLm9yZy8yMDAwL3N2ZyIgeG1sbnM9Imh0dHA6Ly93d3cudzMub3JnLzIwMDAvc3ZnIiB4bWxuczpzb2RpcG9kaT0iaHR0cDovL3NvZGlwb2RpLnNvdXJjZWZvcmdlLm5ldC9EVEQvc29kaXBvZGktMC5kdGQiIHhtbG5zOmlua3NjYXBlPSJodHRwOi8vd3d3Lmlua3NjYXBlLm9yZy9uYW1lc3BhY2VzL2lua3NjYXBlIiB2ZXJzaW9uPSIxLjEiIGlkPSJMYXllcl8xIiB4PSIwcHgiIHk9IjBweCIgd2lkdGg9IjUwcHgiIGhlaWdodD0iNTBweCIgdmlld0JveD0iMCAwIDUwIDUwIiBlbmFibGUtYmFja2dyb3VuZD0ibmV3IDAgMCA1MCA1MCIgeG1sOnNwYWNlPSJwcmVzZXJ2ZSIgc29kaXBvZGk6ZG9jbmFtZT0iQXBwbGljYXRpb24gR2F0ZXdheS5zdmciIGlua3NjYXBlOnZlcnNpb249IjAuOTIuMyAoMjQwNTU0NiwgMjAxOC0wMy0xMSkiPjxtZXRhZGF0YSBpZD0ibWV0YWRhdGEzOTEyIj48cmRmOlJERj48Y2M6V29yayByZGY6YWJvdXQ9IiI+PGRjOmZvcm1hdD5pbWFnZS9zdmcreG1sPC9kYzpmb3JtYXQ+PGRjOnR5cGUgcmRmOnJlc291cmNlPSJodHRwOi8vcHVybC5vcmcvZGMvZGNtaXR5cGUvU3RpbGxJbWFnZSIvPjxkYzp0aXRsZS8+PC9jYzpXb3JrPjwvcmRmOlJERj48L21ldGFkYXRhPjxkZWZzIGlkPSJkZWZzMzkxMCIvPjxzb2RpcG9kaTpuYW1lZHZpZXcgcGFnZWNvbG9yPSIjZmZmZmZmIiBib3JkZXJjb2xvcj0iIzY2NjY2NiIgYm9yZGVyb3BhY2l0eT0iMSIgb2JqZWN0dG9sZXJhbmNlPSIxMCIgZ3JpZHRvbGVyYW5jZT0iMTAiIGd1aWRldG9sZXJhbmNlPSIxMCIgaW5rc2NhcGU6cGFnZW9wYWNpdHk9IjAiIGlua3NjYXBlOnBhZ2VzaGFkb3c9IjIiIGlua3NjYXBlOndpbmRvdy13aWR0aD0iNjQwIiBpbmtzY2FwZTp3aW5kb3ctaGVpZ2h0PSI0ODAiIGlkPSJuYW1lZHZpZXczOTA4IiBzaG93Z3JpZD0iZmFsc2UiIGlua3NjYXBlOnpvb209IjYuMjYiIGlua3NjYXBlOmN4PSIyNSIgaW5rc2NhcGU6Y3k9IjI1IiBpbmtzY2FwZTp3aW5kb3cteD0iMCIgaW5rc2NhcGU6d2luZG93LXk9IjAiIGlua3NjYXBlOndpbmRvdy1tYXhpbWl6ZWQ9IjEiIGlua3NjYXBlOmN1cnJlbnQtbGF5ZXI9IkxheWVyXzEiLz4mI3hhOzxwYXRoIGZpbGw9IiM3RkJBMDAiIGQ9Ik0yNSw1MGMtMS4yLDAtMi40LTAuNS0zLjMtMS40TDEuNCwyOC4zQzAuNSwyNy40LDAsMjYuMiwwLDI1czAuNS0yLjQsMS40LTMuM0wyMS43LDEuNCAgQzIyLjYsMC41LDIzLjgsMCwyNSwwczIuNCwwLjUsMy4zLDEuNGwyMC40LDIwLjRjMC45LDAuOSwxLjQsMiwxLjQsMy4zYzAsMS4yLTAuNSwyLjQtMS40LDMuM0wyOC4zLDQ4LjZDMjcuNCw0OS41LDI2LjIsNTAsMjUsNTAiIGlkPSJwYXRoMzg5MSIvPiYjeGE7PHBhdGggZmlsbD0iI0ZGRkZGRiIgZD0iTTI5LjczOCwxOC41ODRjLTEuMzk4LDEuMDY5LTMuMDQ0LDEuNTg5LTQuNjgsMS41ODljLTIuMzIsMC00LjYxNC0xLjA0Mi02LjEzMS0zLjAyNSAgYy0yLjU5LTMuMzgyLTEuOTUxLTguMjE5LDEuNDM3LTEwLjgxMWMxLjM5Ny0xLjA3NSwzLjA0Ni0xLjU4OCw0LjY3OS0xLjU4OGMyLjMyLDAsNC42MTUsMS4wNDIsNi4xMzEsMy4wMjYgIEMzMy43NjUsMTEuMTU4LDMzLjExOSwxNS45OTYsMjkuNzM4LDE4LjU4NCIgaWQ9InBhdGgzODkzIi8+JiN4YTs8cGF0aCBvcGFjaXR5PSIwLjE1IiBmaWxsPSIjRkZGRkZGIiBlbmFibGUtYmFja2dyb3VuZD0ibmV3ICAgICIgZD0iTTI4LjMsMS40QzI3LjQsMC41LDI2LjIsMCwyNSwwcy0yLjQsMC41LTMuMywxLjRMMS40LDIxLjcgIEMwLjUsMjIuNiwwLDIzLjgsMCwyNXMwLjUsMi40LDEuNCwzLjNsMTEuNSwxMS41TDM0LjYsNy43TDI4LjMsMS40eiIgaWQ9InBhdGgzODk1Ii8+JiN4YTs8cG9seWdvbiBmaWxsPSIjRkZGRkZGIiBwb2ludHM9IjI1LDQ1LjYgMzEuNiwzOSAyNi45LDM5IDI2LjksMTkuMTQ5IDIzLDE5LjE0OSAyMywzOSAxOC40LDM5ICIgaWQ9InBvbHlnb24zODk3Ii8+JiN4YTs8cG9seWdvbiBmaWxsPSIjRkZGRkZGIiBwb2ludHM9IjM5LjMzLDMzLjQ4IDM5LjMzLDI0LjE0NiAzNi4wNzcsMjcuMzk5IDI3LjYzMywxOC45NTUgMjQuODA1LDIxLjc4MyAzMy4yNDksMzAuMjI3IDI5Ljk5NiwzMy40OCAgICIgaWQ9InBvbHlnb24zODk5Ii8+JiN4YTs8cG9seWdvbiBmaWxsPSIjRkZGRkZGIiBwb2ludHM9IjEwLjY4NSwzMy41MTUgMjAuMDE4LDMzLjUxNSAxNi43NjYsMzAuMjYzIDI1LjQ0NywyMS41ODIgMjIuNjE4LDE4Ljc1MyAxMy45MzcsMjcuNDM0ICAgMTAuNjg1LDI0LjE4MiAiIGlkPSJwb2x5Z29uMzkwMSIvPiYjeGE7PHBhdGggZmlsbD0iIzU5QjREOSIgZD0iTTI5LjExNSwxNy43NzFjLTEuMjEyLDAuOTI3LTIuNjQsMS4zNzgtNC4wNTgsMS4zNzhjLTIuMDEyLDAtNC4wMDItMC45MDMtNS4zMTYtMi42MjMgIGMtMi4yNDYtMi45MzMtMS42OTItNy4xMjcsMS4yNDYtOS4zNzVjMS4yMTItMC45MzIsMi42NDEtMS4zNzcsNC4wNTctMS4zNzdjMi4wMTIsMCw0LjAwMiwwLjkwMyw1LjMxNiwyLjYyNCAgQzMyLjYwOCwxMS4zMzEsMzIuMDQ4LDE1LjUyNiwyOS4xMTUsMTcuNzcxIiBpZD0icGF0aDM5MDMiLz4mI3hhOzxwYXRoIGZpbGw9IiNGRkZGRkYiIGQ9Ik0yNy44ODYsMTMuNjM1YzAuNDg2LDAuNjM0LDEuMzg4LDAuNzQ4LDIuMDE4LDAuMjY5YzAuMDMzLTAuMDI1LDAuMDU4LTAuMDU2LDAuMDg4LTAuMDgzICBjMC42NDUsMC40NTQsMS4wOTIsMC43NTQsMS4zNDQsMC45MjVjMC4wNzUtMC4xOTMsMC4xMjYtMC4zNzksMC4xNzktMC41NzNjLTAuMjY2LTAuMTk4LTAuNjI3LTAuNDc2LTEuMTQ4LTAuODk4ICBjMC4xNzEtMC40NDksMC4xMTctMC45NzQtMC4xOTUtMS4zODRjLTAuNDQ3LTAuNTc4LTEuMjM4LTAuNzI1LTEuODU2LTAuMzY4Yy0wLjY4MS0wLjYxMS0xLjQzLTEuMzEyLTIuMjE5LTIuMDk2ICBjMi40NTItMS4zMTksNC4xOTQtMS4xMjYsNC4xOTQtMS4xMjZjLTAuMjkxLTAuMzcxLTAuNjE3LTAuNjk2LTAuOTY1LTAuOTg5Yy0xLjAzNC0wLjE2LTIuNjQtMC4xNDItNC40NzYsMC44MzRsLTAuMDAxLTAuMDAxaDAgIGMtMC42MTItMC42NC0xLjIzNC0xLjMyNy0xLjg2OC0yLjA2M2MtMC4zMDMsMC4wOTctMC42LDAuMjE3LTAuODg2LDAuMzZjMC40NjgsMC43NjYsMS4wOTgsMS41MzgsMS44MDcsMi4yOTJsMCwwICBjMC4wMDEsMC4wMDIsMC4wMDMsMC4wMDMsMC4wMDUsMC4wMDVjLTAuNTkyLDAuNDE0LTEuMjUsMC45NjctMS44NTgsMS42MDljLTAuMDc4LDAuMDgzLTAuMTUyLDAuMTY2LTAuMjI1LDAuMjQ5ICBjLTAuMzYzLTAuMDc2LTAuNzQ1LTAuMDU0LTEuMTAyLDAuMDc1Yy0wLjYwNi0xLjMwNy0wLjU1Ny0yLjM1Ny0wLjQ2MS0yLjg5OGMtMC4yNjMsMC4yNzYtMC41MDksMC41NjUtMC43MiwwLjg3NCAgYy0wLjE1OCwwLjY0Ni0wLjIwMywxLjU3OCwwLjI2NCwyLjcwMWMtMC41NCwwLjcwNy0wLjU2NiwxLjcwOS0wLjAwMSwyLjQ0OWMwLjA0NywwLjA2MSwwLjA5NywwLjExOCwwLjE1LDAuMTczICBjLTAuMjQ2LDAuODM5LTAuMzU3LDEuNjQ5LTAuMzkxLDIuMzQ0YzAuMDYzLDAuMDg2LDAuMDYzLDAuMTU2LDAuMTI2LDAuMjRjMC4zMjEsMC40MTEsMC43MjQsMC43NTgsMS4xMTMsMS4wNzIgIGMtMC4wNDgtMC43MzYsMC4wMDQtMS44MjEsMC40NTktMy4wNDNjMC4zMTQsMC4wMjQsMC42MzMtMC4wMjYsMC45MzItMC4xNTFjMC4xNzEsMC4xNTEsMC4zNSwwLjMwMywwLjU0MiwwLjQ1OCAgYzAuNjU2LDAuNTIsMS4zMTEsMC45MjQsMS45NDksMS4yNDJjLTAuMDMzLDAuMzI1LDAuMDQ4LDAuNjYyLDAuMjU5LDAuOTQxYzAuNDUxLDAuNTgyLDEuMjg2LDAuNjkxLDEuODY4LDAuMjQ2ICBjMC4xMjEtMC4wOTMsMC4yMTctMC4yMDUsMC4yOTYtMC4zMjVjMS4wNDEsMC4yMzIsMS45NSwwLjI3MywyLjYyNCwwLjI3M2MwLjEwMywwLDAuNTgyLTAuNjUyLDAuODU3LTEuMDU2ICBjLTAuNDEsMC4wODYtMS42MjgsMC4yNTMtMy4yOTEtMC4yMjVjLTAuMDQtMC4xODctMC4xMTctMC4zNjgtMC4yNC0wLjUzYy0wLjQyMi0wLjU1NC0xLjE5NS0wLjY3NC0xLjc3MS0wLjMwMyAgYy0wLjU3OC0wLjMxNC0xLjE4NC0wLjcwNy0xLjgwOC0xLjIwMWMtMC4xMjYtMC4xLTAuMjQ3LTAuMTk5LTAuMzY0LTAuMjk5YzAuMzgyLTAuNjAxLDAuNDIyLTEuMzcyLDAuMDg1LTIuMDIgIGMwLjA3Ny0wLjA3NywwLjE1Mi0wLjE1MywwLjIzMy0wLjIyOWMwLjYxOC0wLjU3OCwxLjItMS4wNCwxLjc0NC0xLjQxMWMtMC4wMjItMC4wMi0wLjA0Mi0wLjA0Mi0wLjA2My0wLjA2MiAgYzAuMDIyLDAuMDIsMC4wNDIsMC4wNDEsMC4wNjQsMC4wNjFjMCwwLDAsMC0wLjAwMSwwYzAuODM1LDAuNzcyLDEuNzIsMS41MDQsMi41NTksMi4xNTggIEMyNy41MTQsMTIuNjIxLDI3LjU0OSwxMy4xOTQsMjcuODg2LDEzLjYzNXoiIGlkPSJwYXRoMzkwNSIvPiYjeGE7PC9zdmc+;fillColor=none;" vertex="1" parent="zDaQmOFD6J1gRsia0iM_-1">
          <mxGeometry x="660" y="280.88" width="50" height="50" as="geometry" />
        </mxCell>
        <mxCell id="sWWN8BbJRaAaWUyCIHw_-16" value="" style="sketch=0;html=1;dashed=0;whitespace=wrap;fillColor=#2875E2;strokeColor=#ffffff;points=[[0.005,0.63,0],[0.1,0.2,0],[0.9,0.2,0],[0.5,0,0],[0.995,0.63,0],[0.72,0.99,0],[0.5,1,0],[0.28,0.99,0]];shape=mxgraph.kubernetes.icon;prIcon=vol" vertex="1" parent="zDaQmOFD6J1gRsia0iM_-1">
          <mxGeometry x="1517" y="192.64" width="33" height="26" as="geometry" />
        </mxCell>
        <mxCell id="sWWN8BbJRaAaWUyCIHw_-17" value="" style="sketch=0;html=1;dashed=0;whitespace=wrap;fillColor=#2875E2;strokeColor=#ffffff;points=[[0.005,0.63,0],[0.1,0.2,0],[0.9,0.2,0],[0.5,0,0],[0.995,0.63,0],[0.72,0.99,0],[0.5,1,0],[0.28,0.99,0]];shape=mxgraph.kubernetes.icon;prIcon=vol" vertex="1" parent="zDaQmOFD6J1gRsia0iM_-1">
          <mxGeometry x="1527" y="202.64" width="33" height="26" as="geometry" />
        </mxCell>
        <mxCell id="sWWN8BbJRaAaWUyCIHw_-35" value="DIsk based Storage" style="aspect=fixed;html=1;points=[];align=center;image;fontSize=12;image=img/lib/azure2/storage/Azure_HCP_Cache.svg;fillColor=none;" vertex="1" parent="zDaQmOFD6J1gRsia0iM_-1">
          <mxGeometry x="1760" y="254" width="68" height="63" as="geometry" />
        </mxCell>
        <mxCell id="sWWN8BbJRaAaWUyCIHw_-36" value="Blob based storage" style="aspect=fixed;html=1;points=[];align=center;image;fontSize=12;image=img/lib/azure2/storage/Storage_Accounts.svg;fillColor=none;" vertex="1" parent="zDaQmOFD6J1gRsia0iM_-1">
          <mxGeometry x="1763" y="361" width="65" height="52" as="geometry" />
        </mxCell>
        <mxCell id="sWWN8BbJRaAaWUyCIHw_-37" style="edgeStyle=orthogonalEdgeStyle;rounded=0;orthogonalLoop=1;jettySize=auto;html=1;exitX=0.995;exitY=0.63;exitDx=0;exitDy=0;exitPerimeter=0;entryX=0.065;entryY=0.581;entryDx=0;entryDy=0;entryPerimeter=0;fontSize=9;" edge="1" parent="zDaQmOFD6J1gRsia0iM_-1" source="sWWN8BbJRaAaWUyCIHw_-25" target="sWWN8BbJRaAaWUyCIHw_-36">
          <mxGeometry relative="1" as="geometry" />
        </mxCell>
        <mxCell id="sWWN8BbJRaAaWUyCIHw_-38" style="edgeStyle=orthogonalEdgeStyle;rounded=0;orthogonalLoop=1;jettySize=auto;html=1;exitX=0.995;exitY=0.63;exitDx=0;exitDy=0;exitPerimeter=0;entryX=0.044;entryY=0.518;entryDx=0;entryDy=0;entryPerimeter=0;fontSize=9;" edge="1" parent="zDaQmOFD6J1gRsia0iM_-1" source="sWWN8BbJRaAaWUyCIHw_-14" target="sWWN8BbJRaAaWUyCIHw_-35">
          <mxGeometry relative="1" as="geometry" />
        </mxCell>
        <mxCell id="vz9ZmMo7kBPxiAjC7SVR-0" value="Container&#xa;Registry" style="sketch=0;html=1;fillColor=#5184F3;strokeColor=none;verticalAlign=top;labelPosition=center;verticalLabelPosition=bottom;align=center;spacingTop=-6;fontSize=11;fontStyle=1;fontColor=#999999;shape=mxgraph.gcp2.hexIcon;prIcon=container_registry" vertex="1" parent="zDaQmOFD6J1gRsia0iM_-1">
          <mxGeometry x="1501.0000000000005" y="738.75" width="66" height="58.5" as="geometry" />
        </mxCell>
      </root>
    </mxGraphModel>
  </diagram>
</mxfile>
